<svg version="1.1" xmlns="http://www.w3.org/2000/svg" viewBox="0 0 645.0000305175782 1095.9999389648438" width="645.0000305175782" height="1095.9999389648438">
  <!-- svg-source:excalidraw -->
  
  <defs>
    <style class="style-fonts">
      @font-face {
        font-family: "Virgil";
        src: url("https://excalidraw.com/Virgil.woff2");
      }
      @font-face {
        font-family: "Cascadia";
        src: url("https://excalidraw.com/Cascadia.woff2");
      }
      @font-face {
        font-family: "Assistant";
        src: url("https://excalidraw.com/Assistant-Regular.woff2");
      }
    </style>
    
  </defs>
  <rect x="0" y="0" width="645.0000305175782" height="1095.9999389648438" fill="#fdf8f6"></rect><g stroke-linecap="round" transform="translate(10 10) rotate(0 75 32.5)"><path d="M0 0 C37.38 0.2, 74.98 -1.27, 150 0 M0 0 C42.74 -0.12, 87.18 0.35, 150 0 M150 0 C149.96 14.62, 148.44 31.22, 150 65 M150 0 C149.46 21.38, 149.24 43.83, 150 65 M150 65 C105.11 63.72, 61.23 66.06, 0 65 M150 65 C104.34 65.17, 57.56 66.1, 0 65 M0 65 C0.24 45.67, 1.53 27.06, 0 0 M0 65 C0.09 48.69, 0.2 32.33, 0 0" stroke="#2f9e44" stroke-width="2" fill="none"></path></g><g stroke-linecap="round" transform="translate(10 1020.9999389648438) rotate(0 75 32.5)"><path d="M0 0 C52.62 -1.26, 102.11 -1.41, 150 0 M0 0 C39.07 0.87, 75.8 0.98, 150 0 M150 0 C148.62 17.18, 150.67 34.98, 150 65 M150 0 C148.67 23.9, 149.52 46.93, 150 65 M150 65 C108.91 65.82, 68.37 65.3, 0 65 M150 65 C97.56 64.35, 43.85 63.27, 0 65 M0 65 C1.11 42.87, -0.76 20.07, 0 0 M0 65 C-0.01 44.31, 0.26 21.1, 0 0" stroke="#2f9e44" stroke-width="2" fill="none"></path></g><g stroke-linecap="round" transform="translate(269 10) rotate(0 75 32.5)"><path d="M0 0 C50.9 -0.31, 101.38 -0.34, 150 0 M0 0 C32.43 0.28, 65.71 0.55, 150 0 M150 0 C150.18 16.53, 150.69 30.87, 150 65 M150 0 C149.37 18.59, 149.15 36.01, 150 65 M150 65 C111.72 67.06, 74.1 67.81, 0 65 M150 65 C114.37 64.66, 79.3 65.31, 0 65 M0 65 C-1.18 45.9, 0.29 28.74, 0 0 M0 65 C0.2 41.77, -0.72 20.74, 0 0" stroke="#1971c2" stroke-width="2" fill="none"></path></g><g stroke-linecap="round" transform="translate(269 1020.9999389648438) rotate(0 75 32.5)"><path d="M0 0 C39.23 -0.23, 78.68 2.35, 150 0 M0 0 C39.68 0.37, 79.52 -0.38, 150 0 M150 0 C151.36 17.81, 149.79 36.53, 150 65 M150 0 C149.7 23.44, 149.54 47.38, 150 65 M150 65 C95.04 67.43, 36.69 66.89, 0 65 M150 65 C100.9 63.68, 50.83 64.33, 0 65 M0 65 C0.9 45.86, 1.16 27.59, 0 0 M0 65 C-0.9 40.56, -0.27 14.22, 0 0" stroke="#1971c2" stroke-width="2" fill="none"></path></g><g stroke-linecap="round" transform="translate(485.0000305175781 10) rotate(0 75.00000000000006 32.5)"><path d="M0 0 C37.45 2.37, 77.43 -0.56, 150 0 M0 0 C41.21 -0.78, 83.42 0.25, 150 0 M150 0 C149.96 19.08, 151.68 41.66, 150 65 M150 0 C149.39 22.27, 150.56 44.82, 150 65 M150 65 C96.56 67.45, 46.24 66.07, 0 65 M150 65 C116.54 65.31, 83.45 64.37, 0 65 M0 65 C0.68 49.26, 1.46 34.51, 0 0 M0 65 C0.32 50.13, 0.18 37.98, 0 0" stroke="#f08c00" stroke-width="2" fill="none"></path></g><g stroke-linecap="round" transform="translate(485.0000305175781 1020.9999389648438) rotate(0 75.00000000000006 32.5)"><path d="M0 0 C38.16 -2.5, 77.22 -2, 150 0 M0 0 C45.67 1.38, 91.66 1.64, 150 0 M150 0 C151.17 15.03, 150.75 29.7, 150 65 M150 0 C150.45 17.69, 150.2 35.71, 150 65 M150 65 C92.77 65.67, 32.78 66.59, 0 65 M150 65 C106.87 65.34, 63.4 66.08, 0 65 M0 65 C1.38 47.73, -2.01 28.51, 0 0 M0 65 C-0.23 43.25, -0.68 19.07, 0 0" stroke="#f08c00" stroke-width="2" fill="none"></path></g><g stroke-linecap="round"><g transform="translate(85 75) rotate(0 0 472.9999694824219)"><path d="M0 0 C-1.43 366.58, -1.22 733.28, 0 946 M0 0 C-0.11 217.09, -0.47 433.63, 0 946" stroke="#2f9e44" stroke-width="1" fill="none"></path></g></g><mask></mask><g stroke-linecap="round"><g transform="translate(344 75) rotate(0 0 472.9999694824219)"><path d="M0 0 C-0.78 227.55, -1.39 455.89, 0 946 M0 0 C0.53 314.09, 0.44 628.61, 0 946" stroke="#1971c2" stroke-width="1" fill="none"></path></g></g><mask></mask><g stroke-linecap="round"><g transform="translate(560 75) rotate(0 0 472.9999694824219)"><path d="M0 0 C-0.38 251.46, 0.44 503.17, 0 946 M0 0 C-2.91 338.59, -2.57 676.83, 0 946" stroke="#f08c00" stroke-width="1" fill="none"></path></g></g><mask></mask><g mask="url(#mask-p_bxEIEelGnAqPBRma84r)" stroke-linecap="round"><g transform="translate(86.5 156) rotate(0 126.5 0)"><path d="M-0.06 0.39 C42.25 0.64, 211.21 0.8, 253.25 0.69 M-1.55 -0.46 C40.68 -0.47, 209.74 -1.3, 252.44 -1.07" stroke="#1e1e1e" stroke-width="2" fill="none"></path></g><g transform="translate(86.5 156) rotate(0 126.5 0)"><path d="M228.95 7.49 C235.47 5.81, 241.81 1.91, 252.44 -1.07 M228.95 7.49 C235.54 5.39, 241.87 2.26, 252.44 -1.07" stroke="#1e1e1e" stroke-width="2" fill="none"></path></g><g transform="translate(86.5 156) rotate(0 126.5 0)"><path d="M228.94 -9.61 C235.35 -7.06, 241.68 -6.71, 252.44 -1.07 M228.94 -9.61 C235.38 -6.94, 241.72 -5.29, 252.44 -1.07" stroke="#1e1e1e" stroke-width="2" fill="none"></path></g></g><mask id="mask-p_bxEIEelGnAqPBRma84r"><rect x="0" y="0" fill="#fff" width="440.5" height="256"></rect><rect x="153.89602661132812" y="146" fill="#000" width="118.20794677734375" height="20" opacity="1"></rect></mask><g mask="url(#mask-kHHFKC2HRmJYh9QQALUiE)" stroke-linecap="round"><g transform="translate(345.5 202) rotate(0 105 0)"><path d="M0.25 0.69 C35.13 0.59, 174.41 -0.26, 209.19 -0.25 M-1.07 0.01 C34.19 0.05, 176.09 1.35, 211.48 1.16" stroke="#1e1e1e" stroke-width="2" fill="none"></path></g><g transform="translate(345.5 202) rotate(0 105 0)"><path d="M187.96 9.64 C196.02 5.74, 201.38 2.8, 211.48 1.16 M187.96 9.64 C196.28 6.15, 204.71 3.26, 211.48 1.16" stroke="#1e1e1e" stroke-width="2" fill="none"></path></g><g transform="translate(345.5 202) rotate(0 105 0)"><path d="M188.01 -7.46 C196.11 -6.32, 201.46 -4.22, 211.48 1.16 M188.01 -7.46 C196.3 -4.71, 204.71 -1.36, 211.48 1.16" stroke="#1e1e1e" stroke-width="2" fill="none"></path></g></g><mask id="mask-kHHFKC2HRmJYh9QQALUiE"><rect x="0" y="0" fill="#fff" width="656.5" height="302"></rect><rect x="392.07603454589855" y="192" fill="#000" width="116.84793090820312" height="20" opacity="1"></rect></mask><g mask="url(#mask-6IcA0oonTs5wfJaNUAMh1)" stroke-linecap="round"><g transform="translate(558.5 248) rotate(0 -105 0)"><path d="M-0.81 -0.25 C-36.03 -0.23, -176.2 0.65, -211.08 0.78" stroke="#1e1e1e" stroke-width="2.5" fill="none" stroke-dasharray="1.5 8"></path></g><g transform="translate(558.5 248) rotate(0 -105 0)"><path d="M-187.63 -7.89 C-195.52 -7.06, -201.34 -2.57, -211.08 0.78" stroke="#1e1e1e" stroke-width="2.5" fill="none" stroke-dasharray="1.5 6"></path></g><g transform="translate(558.5 248) rotate(0 -105 0)"><path d="M-187.54 9.21 C-195.56 4.55, -201.4 3.54, -211.08 0.78" stroke="#1e1e1e" stroke-width="2.5" fill="none" stroke-dasharray="1.5 6"></path></g></g><mask id="mask-6IcA0oonTs5wfJaNUAMh1"><rect x="0" y="0" fill="#fff" width="869.5" height="348"></rect><rect x="394.8040313720704" y="238" fill="#000" width="117.39193725585938" height="20" opacity="1"></rect></mask><g mask="url(#mask-XRx7XRCyjc7YBFDfXpCWo)" stroke-linecap="round"><g transform="translate(342.5 294) rotate(0 -126.5 0)"><path d="M-1.08 0.78 C-43.12 0.91, -211.01 0.72, -253.06 0.53" stroke="#1e1e1e" stroke-width="2.5" fill="none" stroke-dasharray="1.5 8"></path></g><g transform="translate(342.5 294) rotate(0 -126.5 0)"><path d="M-229.54 -7.96 C-233.73 -6.29, -239.62 -4.77, -253.06 0.53" stroke="#1e1e1e" stroke-width="2.5" fill="none" stroke-dasharray="1.5 6"></path></g><g transform="translate(342.5 294) rotate(0 -126.5 0)"><path d="M-229.59 9.14 C-233.72 6.83, -239.61 4.38, -253.06 0.53" stroke="#1e1e1e" stroke-width="2.5" fill="none" stroke-dasharray="1.5 6"></path></g></g><mask id="mask-XRx7XRCyjc7YBFDfXpCWo"><rect x="0" y="0" fill="#fff" width="696.5" height="394"></rect><rect x="141.74403381347656" y="284" fill="#000" width="148.51193237304688" height="20" opacity="1"></rect></mask><g mask="url(#mask-Ax__MxueI83V9os8S-gzn)" stroke-linecap="round"><g transform="translate(86.5 385) rotate(0 126.5 0)"><path d="M-0.06 0.53 C42.24 0.34, 210.58 -0.25, 252.67 -0.35 M-1.54 -0.24 C40.65 -0.32, 209.39 0.77, 251.55 1" stroke="#1e1e1e" stroke-width="2" fill="none"></path></g><g transform="translate(86.5 385) rotate(0 126.5 0)"><path d="M228.01 9.41 C233.79 7.11, 237.27 5.01, 251.55 1 M228.01 9.41 C235.29 7.47, 242.52 3.85, 251.55 1" stroke="#1e1e1e" stroke-width="2" fill="none"></path></g><g transform="translate(86.5 385) rotate(0 126.5 0)"><path d="M228.11 -7.69 C233.98 -6.4, 237.44 -4.89, 251.55 1 M228.11 -7.69 C235.48 -4.65, 242.69 -3.28, 251.55 1" stroke="#1e1e1e" stroke-width="2" fill="none"></path></g></g><mask id="mask-Ax__MxueI83V9os8S-gzn"><rect x="0" y="0" fill="#fff" width="440.5" height="485"></rect><rect x="149.64002990722656" y="375" fill="#000" width="126.71994018554688" height="20" opacity="1"></rect></mask><g mask="url(#mask-HKEm7NRyjbTM7gL_DM9CL)" stroke-linecap="round"><g transform="translate(345.5 431) rotate(0 105 0)"><path d="M-0.33 -0.35 C34.6 -0.46, 174.28 -0.18, 209.48 -0.1 M1.7 -1.58 C36.43 -1.54, 173.44 0.87, 208.26 1.38" stroke="#1e1e1e" stroke-width="2" fill="none"></path></g><g transform="translate(345.5 431) rotate(0 105 0)"><path d="M184.63 9.55 C190.98 6.33, 198.38 6.26, 208.26 1.38 M184.63 9.55 C192.77 6.26, 199.83 4.65, 208.26 1.38" stroke="#1e1e1e" stroke-width="2" fill="none"></path></g><g transform="translate(345.5 431) rotate(0 105 0)"><path d="M184.9 -7.55 C191.25 -5.72, 198.56 -0.74, 208.26 1.38 M184.9 -7.55 C193.04 -5.54, 200.01 -1.84, 208.26 1.38" stroke="#1e1e1e" stroke-width="2" fill="none"></path></g></g><mask id="mask-HKEm7NRyjbTM7gL_DM9CL"><rect x="0" y="0" fill="#fff" width="656.5" height="531"></rect><rect x="369.3480453491212" y="421.00000000000006" fill="#000" width="162.3039093017578" height="20" opacity="1"></rect></mask><g mask="url(#mask-4bHrH18ghRVRWjqTtlYH-)" stroke-linecap="round"><g transform="translate(558.5 477) rotate(0 -105 0)"><path d="M-0.52 -0.1 C-35.32 -0.02, -174.3 0, -209.12 0.12" stroke="#1e1e1e" stroke-width="2.5" fill="none" stroke-dasharray="1.5 8"></path></g><g transform="translate(558.5 477) rotate(0 -105 0)"><path d="M-185.64 -8.47 C-192.24 -4.76, -198.27 -2.93, -209.12 0.12" stroke="#1e1e1e" stroke-width="2.5" fill="none" stroke-dasharray="1.5 6"></path></g><g transform="translate(558.5 477) rotate(0 -105 0)"><path d="M-185.61 8.63 C-192.17 7.68, -198.21 4.84, -209.12 0.12" stroke="#1e1e1e" stroke-width="2.5" fill="none" stroke-dasharray="1.5 6"></path></g></g><mask id="mask-4bHrH18ghRVRWjqTtlYH-"><rect x="0" y="0" fill="#fff" width="869.5" height="577"></rect><rect x="404.3800277709962" y="467.00000000000006" fill="#000" width="98.23994445800781" height="20" opacity="1"></rect></mask><g mask="url(#mask-MGtO2KdR_y5Ne8New_g-R)" stroke-linecap="round"><g transform="translate(342.5 523) rotate(0 -126.5 0)"><path d="M0.88 0.12 C-41.1 0.25, -210.28 0.79, -252.43 0.64" stroke="#1e1e1e" stroke-width="2.5" fill="none" stroke-dasharray="1.5 8"></path></g><g transform="translate(342.5 523) rotate(0 -126.5 0)"><path d="M-228.94 -7.92 C-234.77 -4.59, -239.93 -1.64, -252.43 0.64" stroke="#1e1e1e" stroke-width="2.5" fill="none" stroke-dasharray="1.5 6"></path></g><g transform="translate(342.5 523) rotate(0 -126.5 0)"><path d="M-228.93 9.18 C-234.75 8.12, -239.91 6.68, -252.43 0.64" stroke="#1e1e1e" stroke-width="2.5" fill="none" stroke-dasharray="1.5 6"></path></g></g><mask id="mask-MGtO2KdR_y5Ne8New_g-R"><rect x="0" y="0" fill="#fff" width="696.5" height="623"></rect><rect x="143.78404235839844" y="503.00000000000006" fill="#000" width="144.43191528320312" height="40" opacity="1"></rect></mask><g mask="url(#mask-a5ZFureiW8AW1duhScenE)" stroke-linecap="round"><g transform="translate(86.5 614) rotate(0 126.5 0)"><path d="M0.57 0.64 C42.76 0.5, 211.84 -0.71, 254.03 -0.76 M-0.58 -0.07 C41.46 -0.09, 211.3 0.67, 253.62 0.38" stroke="#1e1e1e" stroke-width="2" fill="none"></path></g><g transform="translate(86.5 614) rotate(0 126.5 0)"><path d="M230.13 8.94 C239.96 7.34, 246.4 3.61, 253.62 0.38 M230.13 8.94 C238.24 6.17, 245.36 3.99, 253.62 0.38" stroke="#1e1e1e" stroke-width="2" fill="none"></path></g><g transform="translate(86.5 614) rotate(0 126.5 0)"><path d="M230.12 -8.16 C239.97 -3.37, 246.42 -0.72, 253.62 0.38 M230.12 -8.16 C238.21 -5.29, 245.34 -1.83, 253.62 0.38" stroke="#1e1e1e" stroke-width="2" fill="none"></path></g></g><mask id="mask-a5ZFureiW8AW1duhScenE"><rect x="0" y="0" fill="#fff" width="440.5" height="714"></rect><rect x="135.7440414428711" y="604" fill="#000" width="154.5119171142578" height="20" opacity="1"></rect></mask><g mask="url(#mask-urOFFlJI8RgCG-8esY2tl)" stroke-linecap="round"><g transform="translate(345.5 660) rotate(0 105 0)"><path d="M1.03 -0.76 C36.05 -0.81, 175.89 0.39, 210.7 0.36 M0.11 1.46 C34.98 0.98, 175.3 -1.32, 210.12 -1.58" stroke="#1e1e1e" stroke-width="2" fill="none"></path></g><g transform="translate(345.5 660) rotate(0 105 0)"><path d="M186.74 7.27 C193.56 5.16, 203.55 0.7, 210.12 -1.58 M186.74 7.27 C191.62 5.85, 196.9 2.96, 210.12 -1.58" stroke="#1e1e1e" stroke-width="2" fill="none"></path></g><g transform="translate(345.5 660) rotate(0 105 0)"><path d="M186.52 -9.83 C193.51 -5.99, 203.58 -4.5, 210.12 -1.58 M186.52 -9.83 C191.52 -7.46, 196.84 -6.57, 210.12 -1.58" stroke="#1e1e1e" stroke-width="2" fill="none"></path></g></g><mask id="mask-urOFFlJI8RgCG-8esY2tl"><rect x="0" y="0" fill="#fff" width="656.5" height="760"></rect><rect x="369.2760467529298" y="640" fill="#000" width="162.44790649414062" height="40" opacity="1"></rect></mask><g mask="url(#mask-lIDifIi3f4VoZ9cxY77Ib)" stroke-linecap="round"><g transform="translate(558.5 706) rotate(0 -105 0)"><path d="M0.7 0.36 C-34.49 0.33, -175.08 -0.86, -210.13 -0.94" stroke="#1e1e1e" stroke-width="2.5" fill="none" stroke-dasharray="1.5 8"></path></g><g transform="translate(558.5 706) rotate(0 -105 0)"><path d="M-186.59 -9.36 C-195.12 -6.19, -206.36 -2.02, -210.13 -0.94" stroke="#1e1e1e" stroke-width="2.5" fill="none" stroke-dasharray="1.5 6"></path></g><g transform="translate(558.5 706) rotate(0 -105 0)"><path d="M-186.68 7.74 C-195.07 4.32, -206.28 1.9, -210.13 -0.94" stroke="#1e1e1e" stroke-width="2.5" fill="none" stroke-dasharray="1.5 6"></path></g></g><mask id="mask-lIDifIi3f4VoZ9cxY77Ib"><rect x="0" y="0" fill="#fff" width="869.5" height="806"></rect><rect x="422.0840072631837" y="696" fill="#000" width="62.83198547363281" height="20" opacity="1"></rect></mask><g mask="url(#mask-pqgyBLEi6hp14_MS6C0oU)" stroke-linecap="round"><g transform="translate(342.5 752) rotate(0 -126.5 0)"><path d="M-0.13 -0.94 C-42.34 -1.03, -210.37 -0.42, -252.57 -0.16" stroke="#1e1e1e" stroke-width="2.5" fill="none" stroke-dasharray="1.5 8"></path></g><g transform="translate(342.5 752) rotate(0 -126.5 0)"><path d="M-229.12 -8.82 C-239.07 -5.03, -246.18 -3.16, -252.57 -0.16" stroke="#1e1e1e" stroke-width="2.5" fill="none" stroke-dasharray="1.5 6"></path></g><g transform="translate(342.5 752) rotate(0 -126.5 0)"><path d="M-229.04 8.28 C-239.08 5.94, -246.21 1.68, -252.57 -0.16" stroke="#1e1e1e" stroke-width="2.5" fill="none" stroke-dasharray="1.5 6"></path></g></g><mask id="mask-pqgyBLEi6hp14_MS6C0oU"><rect x="0" y="0" fill="#fff" width="695.5" height="852"></rect><rect x="151.62403106689453" y="742" fill="#000" width="128.75193786621094" height="20" opacity="1"></rect></mask><g mask="url(#mask-7-n13hYIqHCdIRIz3sh09)" stroke-linecap="round"><g transform="translate(86.5 843) rotate(0 126.5 0)"><path d="M0.43 -0.16 C42.56 0.1, 210.62 0.67, 252.69 0.61 M-0.81 -1.29 C41.16 -1.3, 209.45 -1.49, 251.57 -1.19" stroke="#1e1e1e" stroke-width="2" fill="none"></path></g><g transform="translate(86.5 843) rotate(0 126.5 0)"><path d="M228.06 7.31 C234.66 4.24, 242.76 1.99, 251.57 -1.19 M228.06 7.31 C233.85 5.48, 240.01 3.69, 251.57 -1.19" stroke="#1e1e1e" stroke-width="2" fill="none"></path></g><g transform="translate(86.5 843) rotate(0 126.5 0)"><path d="M228.1 -9.8 C234.56 -7.91, 242.64 -5.21, 251.57 -1.19 M228.1 -9.8 C233.77 -7.21, 239.92 -4.6, 251.57 -1.19" stroke="#1e1e1e" stroke-width="2" fill="none"></path></g></g><mask id="mask-7-n13hYIqHCdIRIz3sh09"><rect x="0" y="0" fill="#fff" width="440.5" height="943"></rect><rect x="157.17603302001953" y="823" fill="#000" width="111.64793395996094" height="40" opacity="1"></rect></mask><g mask="url(#mask-o16yOCdMjiDYST6ayYsDc)" stroke-linecap="round"><g transform="translate(345.5 889) rotate(0 105 0)"><path d="M-0.31 0.61 C34.58 0.56, 174.89 -0.47, 209.81 -0.51 M1.72 -0.11 C36.41 0.01, 173.77 1.04, 208.77 0.76" stroke="#1e1e1e" stroke-width="2" fill="none"></path></g><g transform="translate(345.5 889) rotate(0 105 0)"><path d="M185.27 9.29 C194.19 6.18, 200.21 2.33, 208.77 0.76 M185.27 9.29 C192.85 7.2, 200.9 2.68, 208.77 0.76" stroke="#1e1e1e" stroke-width="2" fill="none"></path></g><g transform="translate(345.5 889) rotate(0 105 0)"><path d="M185.28 -7.81 C194.18 -5.18, 200.19 -3.29, 208.77 0.76 M185.28 -7.81 C192.81 -4.24, 200.85 -3.1, 208.77 0.76" stroke="#1e1e1e" stroke-width="2" fill="none"></path></g></g><mask id="mask-o16yOCdMjiDYST6ayYsDc"><rect x="0" y="0" fill="#fff" width="656.5" height="989"></rect><rect x="371.72403717041027" y="869" fill="#000" width="157.5519256591797" height="40" opacity="1"></rect></mask><g mask="url(#mask--zMrai1oudDNXQOPF-LNK)" stroke-linecap="round"><g transform="translate(558.5 935) rotate(0 -105 0)"><path d="M-0.19 -0.51 C-35.26 -0.55, -175.74 0.2, -210.78 0.37" stroke="#1e1e1e" stroke-width="2.5" fill="none" stroke-dasharray="1.5 8"></path></g><g transform="translate(558.5 935) rotate(0 -105 0)"><path d="M-187.33 -8.3 C-194.55 -7.25, -199.51 -4.24, -210.78 0.37" stroke="#1e1e1e" stroke-width="2.5" fill="none" stroke-dasharray="1.5 6"></path></g><g transform="translate(558.5 935) rotate(0 -105 0)"><path d="M-187.24 8.8 C-194.58 5.16, -199.56 3.49, -210.78 0.37" stroke="#1e1e1e" stroke-width="2.5" fill="none" stroke-dasharray="1.5 6"></path></g></g><mask id="mask--zMrai1oudDNXQOPF-LNK"><rect x="0" y="0" fill="#fff" width="869.5" height="1035"></rect><rect x="389.12403106689464" y="925" fill="#000" width="128.75193786621094" height="20" opacity="1"></rect></mask><g mask="url(#mask-oj89BxgLNu8DCD26VOW2Q)" stroke-linecap="round"><g transform="translate(342.5 981) rotate(0 -126.5 0)"><path d="M-0.78 0.37 C-42.98 0.55, -211.31 0.42, -253.39 0.53" stroke="#1e1e1e" stroke-width="2.5" fill="none" stroke-dasharray="1.5 8"></path></g><g transform="translate(342.5 981) rotate(0 -126.5 0)"><path d="M-229.91 -8.04 C-236 -6.41, -242.42 -3.76, -253.39 0.53" stroke="#1e1e1e" stroke-width="2.5" fill="none" stroke-dasharray="1.5 6"></path></g><g transform="translate(342.5 981) rotate(0 -126.5 0)"><path d="M-229.89 9.06 C-235.92 5.83, -242.34 3.61, -253.39 0.53" stroke="#1e1e1e" stroke-width="2.5" fill="none" stroke-dasharray="1.5 6"></path></g></g><mask id="mask-oj89BxgLNu8DCD26VOW2Q"><rect x="0" y="0" fill="#fff" width="696.5" height="1081"></rect><rect x="151.62403106689453" y="971" fill="#000" width="128.75193786621094" height="20" opacity="1"></rect></mask><g stroke-linecap="round"><g transform="translate(74 85) rotate(0 248.5 0)"><path d="M0 0 C117.31 0.48, 234.57 0.7, 497 0" stroke="#adb5bd" stroke-width="2.5" fill="none" stroke-dasharray="1.5 8"></path></g></g><mask></mask><g stroke-linecap="round"><g transform="translate(571 85) rotate(0 0 458)"><path d="M0 0 C2.28 244.91, 0.92 489.04, 0 916" stroke="#adb5bd" stroke-width="2.5" fill="none" stroke-dasharray="1.5 8"></path></g></g><mask></mask><g stroke-linecap="round"><g transform="translate(74 1001) rotate(0 248.5 0)"><path d="M0 0 C137.35 -0.8, 276.47 -0.3, 497 0" stroke="#adb5bd" stroke-width="2.5" fill="none" stroke-dasharray="1.5 8"></path></g></g><mask></mask><g stroke-linecap="round"><g transform="translate(74 85) rotate(0 0 458)"><path d="M0 0 C-2.79 279.28, -3.94 558.63, 0 916" stroke="#adb5bd" stroke-width="2.5" fill="none" stroke-dasharray="1.5 8"></path></g></g><mask></mask><g stroke-linecap="round"><g transform="translate(74 319) rotate(0 248.5 0)"><path d="M0 0 C105.2 0.17, 212.62 -0.19, 497 0" stroke="#adb5bd" stroke-width="2.5" fill="none" stroke-dasharray="1.5 8"></path></g></g><mask></mask><g stroke-linecap="round"><g transform="translate(74 548) rotate(0 248.5 0)"><path d="M0 0 C137.85 0.1, 273.73 1.18, 497 0" stroke="#adb5bd" stroke-width="2.5" fill="none" stroke-dasharray="1.5 8"></path></g></g><mask></mask><g stroke-linecap="round"><g transform="translate(74 777) rotate(0 248.5 0)"><path d="M0 0 C129.32 2.09, 259.66 1.04, 497 0" stroke="#adb5bd" stroke-width="2.5" fill="none" stroke-dasharray="1.5 8"></path></g></g><mask></mask><g transform="translate(278.895751953125 93) rotate(0 78.83195495605469 10)"><text x="0" y="14.016" font-family="Virgil, Segoe UI Emoji" font-size="16px" fill="#1e1e1e" text-anchor="start" style="white-space: pre;" direction="ltr" dominant-baseline="alphabetic">[Resource Request]</text></g><g transform="translate(258.19415283203125 327) rotate(0 74.0799560546875 10)"><text x="0" y="14.016" font-family="Virgil, Segoe UI Emoji" font-size="16px" fill="#1e1e1e" text-anchor="start" style="white-space: pre;" direction="ltr" dominant-baseline="alphabetic">[Create Resource]</text></g><g transform="translate(256.3474807739258 556) rotate(0 75.31995391845703 10)"><text x="0" y="14.016" font-family="Virgil, Segoe UI Emoji" font-size="16px" fill="#1e1e1e" text-anchor="start" style="white-space: pre;" direction="ltr" dominant-baseline="alphabetic">[Update Resource]</text></g><g transform="translate(258.6605453491211 785) rotate(0 72.87196350097656 10)"><text x="0" y="14.016" font-family="Virgil, Segoe UI Emoji" font-size="16px" fill="#1e1e1e" text-anchor="start" style="white-space: pre;" direction="ltr" dominant-baseline="alphabetic">[Delete Resource]</text></g><g stroke-linecap="round" transform="translate(74 85) rotate(0 17 15)"><path d="M0.32 -0.41 L33.88 -0.39 L34.13 29.09 L0.6 30.44" stroke="none" stroke-width="0" fill="#e9ecef"></path><path d="M0 0 C11.53 -0.16, 24.08 -0.47, 34 0 M0 0 C6.75 -0.48, 14.5 -0.28, 34 0 M34 0 C34.15 6.09, 33.36 13.16, 34 30 M34 0 C33.76 11.58, 33.5 22.6, 34 30 M34 30 C22.95 30.4, 14.31 29.24, 0 30 M34 30 C23.39 30, 12.68 29.83, 0 30 M0 30 C0.44 18.06, 0.84 6.15, 0 0 M0 30 C0.41 22.97, -0.39 15.41, 0 0" stroke="#adb5bd" stroke-width="2" fill="none"></path></g><g transform="translate(63.360015869140625 32.5) rotate(0 21.639984130859375 10)"><text x="21.639984130859375" y="14.016" font-family="Virgil, Segoe UI Emoji" font-size="16px" fill="#2f9e44" text-anchor="middle" style="white-space: pre;" direction="ltr" dominant-baseline="alphabetic">Client</text></g><g transform="translate(63.360015869140625 1043.4999389648438) rotate(0 21.639984130859375 10)"><text x="21.639984130859375" y="14.016" font-family="Virgil, Segoe UI Emoji" font-size="16px" fill="#2f9e44" text-anchor="middle" style="white-space: pre;" direction="ltr" dominant-baseline="alphabetic">Client</text></g><g transform="translate(302.99202728271484 32.5) rotate(0 41.007972717285156 10)"><text x="41.007972717285156" y="14.016" font-family="Virgil, Segoe UI Emoji" font-size="16px" fill="#1971c2" text-anchor="middle" style="white-space: pre;" direction="ltr" dominant-baseline="alphabetic">REST API</text></g><g transform="translate(302.99202728271484 1043.4999389648438) rotate(0 41.007972717285156 10)"><text x="41.007972717285156" y="14.016" font-family="Virgil, Segoe UI Emoji" font-size="16px" fill="#1971c2" text-anchor="middle" style="white-space: pre;" direction="ltr" dominant-baseline="alphabetic">REST API</text></g><g transform="translate(535.3200454711914 32.5) rotate(0 24.679985046386776 10)"><text x="24.67998504638672" y="14.016" font-family="Virgil, Segoe UI Emoji" font-size="16px" fill="#f08c00" text-anchor="middle" style="white-space: pre;" direction="ltr" dominant-baseline="alphabetic">Server</text></g><g transform="translate(535.3200454711914 1043.4999389648438) rotate(0 24.679985046386776 10)"><text x="24.67998504638672" y="14.016" font-family="Virgil, Segoe UI Emoji" font-size="16px" fill="#f08c00" text-anchor="middle" style="white-space: pre;" direction="ltr" dominant-baseline="alphabetic">Server</text></g><g transform="translate(153.89602661132812 146) rotate(0 58.453520048428345 9.808163497227724)"><text x="59.103973388671875" y="14.016" font-family="Virgil, Segoe UI Emoji" font-size="16px" fill="#1e1e1e" text-anchor="middle" style="white-space: pre;" direction="ltr" dominant-baseline="alphabetic">GET /resource</text></g><g transform="translate(392.07603454589844 192) rotate(0 58.62752148907629 10.4639088449762)"><text x="58.42396545410156" y="14.016" font-family="Virgil, Segoe UI Emoji" font-size="16px" fill="#1e1e1e" text-anchor="middle" style="white-space: pre;" direction="ltr" dominant-baseline="alphabetic">Fetch resource</text></g><g transform="translate(394.8040313720703 238) rotate(0 57.75391783677043 10.266259950771929)"><text x="58.69596862792969" y="14.016" font-family="Virgil, Segoe UI Emoji" font-size="16px" fill="#1e1e1e" text-anchor="middle" style="white-space: pre;" direction="ltr" dominant-baseline="alphabetic">Resource data</text></g><g transform="translate(141.74403381347656 284) rotate(0 73.69004989825191 10.675866384101017)"><text x="74.25596618652344" y="14.016" font-family="Virgil, Segoe UI Emoji" font-size="16px" fill="#1e1e1e" text-anchor="middle" style="white-space: pre;" direction="ltr" dominant-baseline="alphabetic">200 OK with data</text></g><g transform="translate(149.64002990722656 375) rotate(0 62.42422634260731 10.323278756868092)"><text x="63.35997009277344" y="14.016" font-family="Virgil, Segoe UI Emoji" font-size="16px" fill="#1e1e1e" text-anchor="middle" style="white-space: pre;" direction="ltr" dominant-baseline="alphabetic">POST /resource</text></g><g transform="translate(369.3480453491211 421) rotate(0 80.72786921225486 9.89789372701199)"><text x="81.1519546508789" y="14.016" font-family="Virgil, Segoe UI Emoji" font-size="16px" fill="#1e1e1e" text-anchor="middle" style="white-space: pre;" direction="ltr" dominant-baseline="alphabetic">Create new resource</text></g><g transform="translate(404.3800277709961 467) rotate(0 49.30027942620217 10.00871595777572)"><text x="49.119972229003906" y="14.016" font-family="Virgil, Segoe UI Emoji" font-size="16px" fill="#1e1e1e" text-anchor="middle" style="white-space: pre;" direction="ltr" dominant-baseline="alphabetic">201 Created</text></g><g transform="translate(143.78404235839844 503) rotate(0 72.94395543299618 20.393826364139585)"><text x="72.21595764160156" y="14.016" font-family="Virgil, Segoe UI Emoji" font-size="16px" fill="#1e1e1e" text-anchor="middle" style="white-space: pre;" direction="ltr" dominant-baseline="alphabetic">201 Created with </text><text x="72.21595764160156" y="34.016" font-family="Virgil, Segoe UI Emoji" font-size="16px" fill="#1e1e1e" text-anchor="middle" style="white-space: pre;" direction="ltr" dominant-baseline="alphabetic">resource ID</text></g><g transform="translate(135.7440414428711 604) rotate(0 77.4769149823673 9.941945761814708)"><text x="77.2559585571289" y="14.016" font-family="Virgil, Segoe UI Emoji" font-size="16px" fill="#1e1e1e" text-anchor="middle" style="white-space: pre;" direction="ltr" dominant-baseline="alphabetic">PUT /resource/{id}</text></g><g transform="translate(369.2760467529297 640) rotate(0 81.62750998767092 19.939637085385613)"><text x="81.22395324707031" y="14.016" font-family="Virgil, Segoe UI Emoji" font-size="16px" fill="#1e1e1e" text-anchor="middle" style="white-space: pre;" direction="ltr" dominant-baseline="alphabetic">Update resource by </text><text x="81.22395324707031" y="34.016" font-family="Virgil, Segoe UI Emoji" font-size="16px" fill="#1e1e1e" text-anchor="middle" style="white-space: pre;" direction="ltr" dominant-baseline="alphabetic">ID</text></g><g transform="translate(422.0840072631836 696) rotate(0 31.70361275635662 9.705963224545144)"><text x="31.415992736816406" y="14.016" font-family="Virgil, Segoe UI Emoji" font-size="16px" fill="#1e1e1e" text-anchor="middle" style="white-space: pre;" direction="ltr" dominant-baseline="alphabetic">200 OK</text></g><g transform="translate(151.62403106689453 742) rotate(0 64.52678095065056 9.442743099342636)"><text x="64.37596893310547" y="14.016" font-family="Virgil, Segoe UI Emoji" font-size="16px" fill="#1e1e1e" text-anchor="middle" style="white-space: pre;" direction="ltr" dominant-baseline="alphabetic">204 No Content</text></g><g transform="translate(157.17603302001953 823) rotate(0 55.26460049407558 19.628513095453968)"><text x="55.82396697998047" y="14.016" font-family="Virgil, Segoe UI Emoji" font-size="16px" fill="#1e1e1e" text-anchor="middle" style="white-space: pre;" direction="ltr" dominant-baseline="alphabetic">DELETE </text><text x="55.82396697998047" y="34.016" font-family="Virgil, Segoe UI Emoji" font-size="16px" fill="#1e1e1e" text-anchor="middle" style="white-space: pre;" direction="ltr" dominant-baseline="alphabetic">/resource/{id}</text></g><g transform="translate(371.72403717041016 869) rotate(0 78.52582615576682 20.150837343046476)"><text x="78.77596282958984" y="14.016" font-family="Virgil, Segoe UI Emoji" font-size="16px" fill="#1e1e1e" text-anchor="middle" style="white-space: pre;" direction="ltr" dominant-baseline="alphabetic">Delete resource by </text><text x="78.77596282958984" y="34.016" font-family="Virgil, Segoe UI Emoji" font-size="16px" fill="#1e1e1e" text-anchor="middle" style="white-space: pre;" direction="ltr" dominant-baseline="alphabetic">ID</text></g><g transform="translate(389.12403106689453 925) rotate(0 63.89413785897199 9.931442393992711)"><text x="64.37596893310547" y="14.016" font-family="Virgil, Segoe UI Emoji" font-size="16px" fill="#1e1e1e" text-anchor="middle" style="white-space: pre;" direction="ltr" dominant-baseline="alphabetic">204 No Content</text></g><g transform="translate(151.62403106689453 971) rotate(0 63.791776573285404 10.450599128380418)"><text x="64.37596893310547" y="14.016" font-family="Virgil, Segoe UI Emoji" font-size="16px" fill="#1e1e1e" text-anchor="middle" style="white-space: pre;" direction="ltr" dominant-baseline="alphabetic">204 No Content</text></g><g transform="translate(79.04000854492188 90) rotate(0 11.959991455078125 10)"><text x="11.959991455078125" y="14.016" font-family="Virgil, Segoe UI Emoji" font-size="16px" fill="#000" text-anchor="middle" style="white-space: pre;" direction="ltr" dominant-baseline="alphabetic">alt</text></g></svg>