<svg version="1.1" xmlns="http://www.w3.org/2000/svg" viewBox="0 0 2216.927181086279 2038.912096674562" width="2216.927181086279" height="2038.912096674562">
  <!-- svg-source:excalidraw -->
  
  <defs>
    <style class="style-fonts">
      @font-face {
        font-family: "Virgil";
        src: url("https://excalidraw.com/Virgil.woff2");
      }
      @font-face {
        font-family: "Cascadia";
        src: url("https://excalidraw.com/Cascadia.woff2");
      }
      @font-face {
        font-family: "Assistant";
        src: url("https://excalidraw.com/Assistant-Regular.woff2");
      }
    </style>
    
  </defs>
  <rect x="0" y="0" width="2216.927181086279" height="2038.912096674562" fill="#fdf8f6"></rect><a href="Notable/Home"><g stroke-linecap="round" transform="translate(1229.4765642807674 790.5433115813739) rotate(0 488.7253084027558 256.9188589185204)"><path d="M32 0 C390.22 2.44, 747.93 3.17, 945.45 0 M32 0 C340.72 0.51, 648.64 0.12, 945.45 0 M945.45 0 C966.39 1.83, 978.2 11.58, 977.45 32 M945.45 0 C967.18 1.11, 975.43 8.56, 977.45 32 M977.45 32 C979.39 144.57, 978.34 259.45, 977.45 481.84 M977.45 32 C977.02 196.47, 977.04 360.39, 977.45 481.84 M977.45 481.84 C976.57 503.96, 966.67 513.93, 945.45 513.84 M977.45 481.84 C979.03 504.29, 966.72 514.78, 945.45 513.84 M945.45 513.84 C636.41 514.1, 328.21 513.85, 32 513.84 M945.45 513.84 C668.42 516.37, 391.47 516.24, 32 513.84 M32 513.84 C9.2 512.14, 1.68 501.49, 0 481.84 M32 513.84 C9.23 513.27, 1.46 504.09, 0 481.84 M0 481.84 C-1.7 354.22, -0.7 226.99, 0 32 M0 481.84 C0.76 334.11, 0.86 185.74, 0 32 M0 32 C0 10.51, 8.84 1.15, 32 0 M0 32 C2.23 10.27, 9.17 -2.15, 32 0" stroke="#1e1e1e" stroke-width="1" fill="none"></path></g></a><g stroke-linecap="round" transform="translate(1633.0027656062182 808.5183163764226) rotate(0 64.53776550292969 28.23529052734375)"><path d="M14.12 0 C49.05 0.7, 87.2 -0.09, 114.96 0 M14.12 0 C35.5 -0.45, 57.86 0.52, 114.96 0 M114.96 0 C122.61 -1.7, 130.15 6.51, 129.08 14.12 M114.96 0 C124.07 -0.37, 129.88 5.2, 129.08 14.12 M129.08 14.12 C129.42 23.06, 129.74 35.3, 129.08 42.35 M129.08 14.12 C129.95 23.08, 129.7 32.51, 129.08 42.35 M129.08 42.35 C129.34 52.6, 126.36 54.59, 114.96 56.47 M129.08 42.35 C131.1 52.94, 124.5 56.14, 114.96 56.47 M114.96 56.47 C77.87 55.09, 37.32 57.1, 14.12 56.47 M114.96 56.47 C79.74 55.75, 45.11 56.22, 14.12 56.47 M14.12 56.47 C3.23 56.42, 1.34 51.44, 0 42.35 M14.12 56.47 C5.88 54.45, 0.59 51.99, 0 42.35 M0 42.35 C-1.25 29.63, -0.57 19.64, 0 14.12 M0 42.35 C0.55 31.1, 0.72 20.34, 0 14.12 M0 14.12 C-1.43 5.87, 3.34 1.58, 14.12 0 M0 14.12 C0.48 6.53, 4.27 -1.38, 14.12 0" stroke="#1e1e1e" stroke-width="1" fill="none"></path></g><g transform="translate(1669.0105628474291 824.2536069037664) rotate(0 28.52996826171875 12.5)"><text x="28.52996826171875" y="17.52" font-family="Virgil, Segoe UI Emoji" font-size="20px" fill="#1e1e1e" text-anchor="middle" style="white-space: pre;" direction="ltr" dominant-baseline="alphabetic">Notes</text></g><g transform="translate(1512.6963590166274 829.2971586367414) rotate(0 48.34917449951172 16.13025665283203)"><text x="0" y="22.60816772460937" font-family="Virgil, Segoe UI Emoji" font-size="25.808410644531246px" fill="#1e1e1e" text-anchor="start" style="white-space: pre;" direction="ltr" dominant-baseline="alphabetic">Notable</text></g><g stroke-linecap="round" transform="translate(1495.4578471893708 1023.0746812349003) rotate(0 222.74507310655378 129.19266977188437)"><path d="M32 0 C174.13 -0.32, 316.76 -1.25, 413.49 0 M32 0 C115.61 1.24, 200.68 2.08, 413.49 0 M413.49 0 C436.66 -0.31, 443.6 10.82, 445.49 32 M413.49 0 C436.91 1.54, 443.76 10.82, 445.49 32 M445.49 32 C444.16 93.32, 444.36 150.66, 445.49 226.39 M445.49 32 C445.28 94.15, 444.74 157.45, 445.49 226.39 M445.49 226.39 C444.19 246.17, 436.01 258.38, 413.49 258.39 M445.49 226.39 C444.18 248.7, 432.91 257.9, 413.49 258.39 M413.49 258.39 C322.69 258.32, 233.88 259.22, 32 258.39 M413.49 258.39 C298.52 260.03, 182.7 260.27, 32 258.39 M32 258.39 C8.97 257.08, -0.99 249.45, 0 226.39 M32 258.39 C12.69 258.93, -1.23 249.39, 0 226.39 M0 226.39 C0.18 173.64, 0.94 119.28, 0 32 M0 226.39 C0.21 159.32, 1.49 94.81, 0 32 M0 32 C0.81 12.3, 12.34 -0.42, 32 0 M0 32 C0.14 9.38, 11.76 -1.93, 32 0" stroke="#1e1e1e" stroke-width="1" fill="none"></path></g><g transform="translate(1517.5938200335554 1105.8128380267685) rotate(0 102.15990447998047 12.5)"><text x="0" y="17.52" font-family="Virgil, Segoe UI Emoji" font-size="20px" fill="#1e1e1e" text-anchor="start" style="white-space: pre;" direction="ltr" dominant-baseline="alphabetic">Number of Notes: int</text></g><g transform="translate(1525.7060797260747 1047.4435314277712) rotate(0 46.76537322998047 18.326331244574668)"><text x="0" y="25.686185872395853" font-family="Virgil, Segoe UI Emoji" font-size="29.322129991319468px" fill="#1e1e1e" text-anchor="start" style="white-space: pre;" direction="ltr" dominant-baseline="alphabetic">Stats:</text></g><g transform="translate(1246.3722419918881 753.8311844647853) rotate(0 49.94996643066406 12.5)"><text x="0" y="17.52" font-family="Virgil, Segoe UI Emoji" font-size="20px" fill="#1e1e1e" text-anchor="start" style="white-space: pre;" direction="ltr" dominant-baseline="alphabetic">Main Page</text></g><g transform="translate(1515.037715843751 889.5147080226956) rotate(0 66.43724060058594 20.47568771179653)"><text x="0" y="28.69872389685402" font-family="Virgil, Segoe UI Emoji" font-size="32.76110033887445px" fill="#1e1e1e" text-anchor="start" style="white-space: pre;" direction="ltr" dominant-baseline="alphabetic">Account:</text></g><g stroke-linecap="round" transform="translate(1494.022861754017 877.8169656646842) rotate(0 225.4462937194358 69.65437287337787)"><path d="M32 0 C113.78 -2.96, 193.69 -1.23, 418.89 0 M32 0 C159.05 -1.36, 286.17 -1.28, 418.89 0 M418.89 0 C441.7 0.76, 450.27 10.22, 450.89 32 M418.89 0 C439.66 -0.8, 449.72 9.05, 450.89 32 M450.89 32 C452.88 55.23, 453.23 80.81, 450.89 107.31 M450.89 32 C451.64 61.26, 450.76 90.27, 450.89 107.31 M450.89 107.31 C449.26 128.49, 441.09 138.03, 418.89 139.31 M450.89 107.31 C449.36 127.67, 438.52 141.52, 418.89 139.31 M418.89 139.31 C272.24 140.77, 124.95 139.02, 32 139.31 M418.89 139.31 C288.64 137.82, 158.75 138.08, 32 139.31 M32 139.31 C9.25 137.4, 0.15 128.8, 0 107.31 M32 139.31 C12.1 139.17, -1.72 129.64, 0 107.31 M0 107.31 C-0.46 78.98, 2.39 47.69, 0 32 M0 107.31 C0.04 85.62, -1.32 64.7, 0 32 M0 32 C0.44 9.17, 11.7 0.96, 32 0 M0 32 C2.21 8.58, 10.6 -0.73, 32 0" stroke="#1e1e1e" stroke-width="1" fill="none"></path></g><g transform="translate(1519.2914695946101 937.3688342934747) rotate(0 60.229949951171875 12.5)"><text x="0" y="17.52" font-family="Virgil, Segoe UI Emoji" font-size="20px" fill="#1e1e1e" text-anchor="start" style="white-space: pre;" direction="ltr" dominant-baseline="alphabetic">Name: String</text></g><g transform="translate(1518.2278300147657 973.52533889152) rotate(0 126.55989837646484 12.5)"><text x="0" y="17.52" font-family="Virgil, Segoe UI Emoji" font-size="20px" fill="#1e1e1e" text-anchor="start" style="white-space: pre;" direction="ltr" dominant-baseline="alphabetic">Creation Date: DateTime</text></g><g transform="translate(1520.354867803899 1148.9905892363213) rotate(0 106.5099105834961 12.5)"><text x="0" y="17.52" font-family="Virgil, Segoe UI Emoji" font-size="20px" fill="#1e1e1e" text-anchor="start" style="white-space: pre;" direction="ltr" dominant-baseline="alphabetic">Favourite Tag: String</text></g><a href="Notable/Login"><g stroke-linecap="round" transform="translate(557.0832358858548 41.54455273533836) rotate(0 488.7253084027558 256.9188589185204)"><path d="M32 0 C392.23 2.34, 754.12 2.01, 945.45 0 M32 0 C366.58 2.17, 701.35 2.22, 945.45 0 M945.45 0 C964.93 -0.04, 978.93 10.19, 977.45 32 M945.45 0 C966.67 -0.19, 976.81 12.19, 977.45 32 M977.45 32 C979.09 189.77, 978.37 348.14, 977.45 481.84 M977.45 32 C978.27 137.87, 978.55 243.44, 977.45 481.84 M977.45 481.84 C976.02 503.96, 966.1 513.34, 945.45 513.84 M977.45 481.84 C975.52 502.58, 968.51 515.02, 945.45 513.84 M945.45 513.84 C594.05 514.76, 241.59 515.73, 32 513.84 M945.45 513.84 C762.81 514.72, 580.06 514.96, 32 513.84 M32 513.84 C11.37 514.87, 1.08 502.04, 0 481.84 M32 513.84 C9.45 511.95, -1.45 503.12, 0 481.84 M0 481.84 C-0.85 303.17, -0.79 123.74, 0 32 M0 481.84 C0.88 378.12, 0.35 274.38, 0 32 M0 32 C-1.34 11.17, 9.83 -0.87, 32 0 M0 32 C-0.05 11.95, 11.54 1.56, 32 0" stroke="#1e1e1e" stroke-width="1" fill="none"></path></g></a><g transform="translate(577.8545455123405 10) rotate(0 23.399978637695312 12.5)"><text x="0" y="17.52" font-family="Virgil, Segoe UI Emoji" font-size="20px" fill="#1e1e1e" text-anchor="start" style="white-space: pre;" direction="ltr" dominant-baseline="alphabetic">Login</text></g><a href="Notable/{Username}/Notes"><g stroke-linecap="round" transform="translate(529.0892752338823 1515.0743788375212) rotate(0 488.7253084027558 256.91885891852047)"><path d="M32 0 C373.82 -0.51, 715.03 -0.15, 945.45 0 M32 0 C312.38 -0.8, 592.86 -0.7, 945.45 0 M945.45 0 C966.32 -1.44, 978.25 11.95, 977.45 32 M945.45 0 C967.7 1.08, 978.46 11.25, 977.45 32 M977.45 32 C976.84 182.73, 977.14 332.26, 977.45 481.84 M977.45 32 C976.81 126.22, 977.13 221.25, 977.45 481.84 M977.45 481.84 C975.68 504.76, 968.67 512.08, 945.45 513.84 M977.45 481.84 C978.72 502.68, 965.75 512.09, 945.45 513.84 M945.45 513.84 C749.71 516.35, 553.49 515.48, 32 513.84 M945.45 513.84 C711.99 516.19, 478.32 516.38, 32 513.84 M32 513.84 C9.83 513.07, -1.38 504.83, 0 481.84 M32 513.84 C11.06 515.23, 1.95 504.82, 0 481.84 M0 481.84 C-1.08 387.59, -1.01 292.6, 0 32 M0 481.84 C0.81 373.65, 0.08 266.37, 0 32 M0 32 C-0.03 9.75, 11 -1.08, 32 0 M0 32 C1.12 9.11, 10.34 -1.04, 32 0" stroke="#1e1e1e" stroke-width="1" fill="none"></path></g></a><g transform="translate(545.9850380452699 1480.611792170246) rotate(0 57.289947509765625 12.5)"><text x="0" y="17.52" font-family="Virgil, Segoe UI Emoji" font-size="20px" fill="#1e1e1e" text-anchor="start" style="white-space: pre;" direction="ltr" dominant-baseline="alphabetic">Notes Page</text></g><g stroke-linecap="round" transform="translate(548.926742173745 1531.3251460360598) rotate(0 94.49282904243498 30.03521623728983)"><path d="M15.02 0 C79.11 -2.44, 141.48 -0.61, 173.97 0 M15.02 0 C74.16 0, 131.4 1.06, 173.97 0 M173.97 0 C183.76 -0.42, 187.23 5.43, 188.99 15.02 M173.97 0 C182.36 2.26, 190.56 2.88, 188.99 15.02 M188.99 15.02 C187.22 26.77, 189.78 40.8, 188.99 45.05 M188.99 15.02 C189.38 22.65, 189.12 29.36, 188.99 45.05 M188.99 45.05 C189.97 54.5, 185.11 61.48, 173.97 60.07 M188.99 45.05 C191.09 56.36, 183.4 60.46, 173.97 60.07 M173.97 60.07 C113.8 61.81, 57 58.93, 15.02 60.07 M173.97 60.07 C115.09 59.05, 54.17 58.32, 15.02 60.07 M15.02 60.07 C4.31 60.11, 1.85 55.69, 0 45.05 M15.02 60.07 C4.62 59.87, -0.32 54.58, 0 45.05 M0 45.05 C-0.22 34.17, -1.57 19.62, 0 15.02 M0 45.05 C-1 34.17, 0.07 21.85, 0 15.02 M0 15.02 C0.38 6.7, 5.32 0.06, 15.02 0 M0 15.02 C2.1 4.12, 4.04 -0.44, 15.02 0" stroke="#1e1e1e" stroke-width="1" fill="none"></path></g><g transform="translate(558.3196414066095 1548.8603622733497) rotate(0 85.09992980957031 12.5)"><text x="85.09992980957031" y="17.52" font-family="Virgil, Segoe UI Emoji" font-size="20px" fill="#1e1e1e" text-anchor="middle" style="white-space: pre;" direction="ltr" dominant-baseline="alphabetic">Create New Note</text></g><g stroke-linecap="round" transform="translate(544.7823023815146 1597.635869152362) rotate(0 374.65569221729726 203.9055895996009)"><path d="M7.86 8.16 C7.86 8.16, 7.86 8.16, 7.86 8.16 M7.86 8.16 C7.86 8.16, 7.86 8.16, 7.86 8.16 M3.66 19.09 C9.48 11.66, 12.99 5.43, 18.1 2.48 M3.66 19.09 C9.25 13.96, 14.58 7.82, 18.1 2.48 M2.75 26.24 C8.48 20.59, 14.91 11.88, 24.4 1.33 M2.75 26.24 C10.74 16.8, 18.96 6.72, 24.4 1.33 M1.83 33.39 C10.14 23.86, 14.19 17.37, 30.7 0.18 M1.83 33.39 C12.65 21.64, 22.06 9.79, 30.7 0.18 M1.57 39.79 C13.24 24.6, 26.06 8.83, 34.37 2.05 M1.57 39.79 C13.99 26.08, 26.85 10.86, 34.37 2.05 M1.96 45.43 C11.03 35.79, 19.44 27.71, 39.36 2.41 M1.96 45.43 C11.77 32.73, 23.5 19.74, 39.36 2.41 M1.7 51.83 C14.65 36.89, 27.89 23.12, 45 2.02 M1.7 51.83 C17.58 34.53, 33.99 14.75, 45 2.02 M1.44 58.23 C20.57 36.27, 37.61 14.89, 49.99 2.38 M1.44 58.23 C15.75 41.71, 28.1 27.38, 49.99 2.38 M1.83 63.87 C15.25 47.67, 29.1 32.98, 55.63 1.98 M1.83 63.87 C15.76 47.82, 29.43 32.06, 55.63 1.98 M1.57 70.27 C15.53 51.14, 30.37 34.21, 60.62 2.34 M1.57 70.27 C24.98 43.8, 47.03 16.91, 60.62 2.34 M1.97 75.91 C20.92 51.94, 43.66 27.99, 66.26 1.95 M1.97 75.91 C23.24 52.66, 44.02 27.85, 66.26 1.95 M1.71 82.31 C20.16 59.06, 41.86 36.49, 71.25 2.31 M1.71 82.31 C22.81 59.67, 43.78 35.95, 71.25 2.31 M1.44 88.71 C30.69 53.55, 61.68 20.46, 76.89 1.91 M1.44 88.71 C29.71 56.73, 57.7 25.19, 76.89 1.91 M1.84 94.35 C25.89 70.04, 45.66 46.86, 81.88 2.27 M1.84 94.35 C19.95 74.44, 37.75 53.62, 81.88 2.27 M1.58 100.75 C17.48 82.24, 35.1 59.8, 87.52 1.88 M1.58 100.75 C25.98 72.61, 49.25 44.64, 87.52 1.88 M1.97 106.39 C36.95 65.36, 71.78 25.49, 92.51 2.24 M1.97 106.39 C22.95 83.51, 41.33 61.13, 92.51 2.24 M1.71 112.79 C40.7 69.84, 78.99 25.57, 98.15 1.85 M1.71 112.79 C34.25 76.19, 65.18 38.76, 98.15 1.85 M1.45 119.19 C21.97 98.22, 42.61 73.05, 103.14 2.21 M1.45 119.19 C28.46 90.42, 53.51 60.1, 103.14 2.21 M1.84 124.83 C42.08 77.84, 84.91 32.2, 108.78 1.81 M1.84 124.83 C32.5 89.38, 60.89 55.73, 108.78 1.81 M1.58 131.23 C37.63 90.81, 75.39 45.69, 113.77 2.17 M1.58 131.23 C40.07 87.69, 77.58 45.51, 113.77 2.17 M1.98 136.87 C35.85 99.42, 67.25 58.93, 119.41 1.78 M1.98 136.87 C30.53 102.97, 61.31 67.7, 119.41 1.78 M1.72 143.27 C40.27 99.68, 76.87 55.6, 124.4 2.14 M1.72 143.27 C48.75 89.54, 97.7 33.67, 124.4 2.14 M1.45 149.67 C50.45 90.9, 101.67 32.48, 130.04 1.74 M1.45 149.67 C35.81 109.69, 70.94 68.4, 130.04 1.74 M1.85 155.31 C50.07 102.92, 97.51 46.78, 135.03 2.1 M1.85 155.31 C53.5 94.29, 106.69 34.18, 135.03 2.1 M1.59 161.71 C48.67 109.15, 97.72 53.41, 140.67 1.71 M1.59 161.71 C46.53 110.01, 91.65 58.85, 140.67 1.71 M1.98 167.35 C58.75 101.64, 115.76 37.14, 145.66 2.07 M1.98 167.35 C37.49 126.56, 73.34 87.04, 145.66 2.07 M1.72 173.75 C49.79 120.72, 96 66.81, 150.65 2.43 M1.72 173.75 C42.94 125.82, 84.86 77.28, 150.65 2.43 M1.46 180.14 C34.97 142.96, 69.86 101.71, 156.29 2.03 M1.46 180.14 C39.93 134.56, 80.19 88.99, 156.29 2.03 M1.85 185.79 C37.93 146.08, 69.96 108.84, 161.28 2.39 M1.85 185.79 C64.59 112.51, 126.68 40.8, 161.28 2.39 M1.59 192.19 C57.32 126.28, 118.5 57.3, 166.92 2 M1.59 192.19 C47.13 137.33, 95.68 83.53, 166.92 2 M1.99 197.83 C57.34 136.24, 112.42 70.94, 171.91 2.36 M1.99 197.83 C67.56 119.4, 134.17 42.5, 171.91 2.36 M1.72 204.23 C68.98 126.86, 134.77 51.57, 177.55 1.96 M1.72 204.23 C39.86 158.51, 76.87 114.77, 177.55 1.96 M1.46 210.62 C44.38 161.55, 88.14 111.03, 182.54 2.32 M1.46 210.62 C73.39 129.56, 143.78 48.32, 182.54 2.32 M1.86 216.27 C42.71 168.05, 84.44 120.3, 188.18 1.93 M1.86 216.27 C51.06 159.29, 100.17 103.22, 188.18 1.93 M1.6 222.66 C65.88 147.46, 130.75 73.87, 193.17 2.29 M1.6 222.66 C73.4 139.13, 147.01 56.38, 193.17 2.29 M1.99 228.31 C52.38 174.43, 100.41 118.47, 198.81 1.9 M1.99 228.31 C53.43 168.41, 106.23 107.75, 198.81 1.9 M1.73 234.71 C61.71 165.36, 124.87 94.45, 203.8 2.26 M1.73 234.71 C67.96 157.89, 134.19 83.15, 203.8 2.26 M1.47 241.1 C77.21 152.88, 152.58 66.45, 209.44 1.86 M1.47 241.1 C43.22 192.38, 84.23 143.43, 209.44 1.86 M1.86 246.75 C43.59 195.48, 89.1 143.98, 214.43 2.22 M1.86 246.75 C61.82 178.26, 121.21 109.01, 214.43 2.22 M1.6 253.14 C74.08 168.34, 145.28 85.85, 220.07 1.83 M1.6 253.14 C59.63 185.3, 118.6 118.72, 220.07 1.83 M2 258.79 C51.68 204.08, 98.76 150.55, 225.06 2.19 M2 258.79 C61.28 188.36, 122.48 117.4, 225.06 2.19 M1.73 265.19 C62.09 196.07, 123.31 128.24, 230.7 1.79 M1.73 265.19 C93.13 161.94, 183.41 57.06, 230.7 1.79 M1.47 271.58 C69.55 194.67, 137.92 114.75, 235.69 2.15 M1.47 271.58 C51.26 214.5, 101.25 156.68, 235.69 2.15 M1.87 277.23 C72.11 195.31, 142.89 116.46, 241.33 1.76 M1.87 277.23 C84.85 179.04, 170.14 81.44, 241.33 1.76 M1.61 283.62 C75.49 200.94, 147.67 119.54, 246.32 2.12 M1.61 283.62 C97.61 172.85, 193.91 62.39, 246.32 2.12 M2 289.27 C83.3 193.32, 162.73 101.58, 251.96 1.72 M2 289.27 C58.6 225.44, 115.77 159.96, 251.96 1.72 M1.74 295.66 C73.76 211.25, 145.41 130.24, 256.95 2.08 M1.74 295.66 C96.19 186.14, 191.58 76.41, 256.95 2.08 M1.48 302.06 C79.9 211.68, 158.91 122.44, 262.59 1.69 M1.48 302.06 C89.88 200.7, 177.79 99.51, 262.59 1.69 M1.87 307.71 C56.52 245.64, 111.14 183.38, 267.58 2.05 M1.87 307.71 C82.51 213.68, 164.23 118.91, 267.58 2.05 M1.61 314.1 C81.49 222.08, 160.73 130.45, 272.56 2.41 M1.61 314.1 C93.27 209.05, 184.49 104.03, 272.56 2.41 M2.01 319.75 C111.59 192.6, 223.53 66.56, 278.21 2.01 M2.01 319.75 C64.87 247.48, 127.13 175.28, 278.21 2.01 M1.74 326.14 C71.43 244.96, 139.39 167.25, 283.19 2.37 M1.74 326.14 C87.11 226.74, 172.89 127.26, 283.19 2.37 M1.48 332.54 C91.73 228.86, 180.43 125.29, 288.84 1.98 M1.48 332.54 C96.71 223.47, 192.24 114.14, 288.84 1.98 M1.88 338.19 C68.7 260.36, 133.94 185.04, 293.82 2.34 M1.88 338.19 C77.14 251.36, 151.27 166.21, 293.82 2.34 M1.62 344.58 C118.04 213.63, 232.41 81.33, 299.47 1.94 M1.62 344.58 C95.56 236.06, 188.9 127.45, 299.47 1.94 M2.01 350.23 C109.4 225.12, 218.12 101.03, 304.45 2.3 M2.01 350.23 C67.96 273.8, 135.1 197.28, 304.45 2.3 M1.75 356.62 C106.32 236.67, 210.79 117.83, 310.1 1.91 M1.75 356.62 C76.98 271.48, 151.44 186.1, 310.1 1.91 M1.49 363.02 C97.09 251.74, 192.97 141.06, 315.08 2.27 M1.49 363.02 C121.4 226.7, 239.43 91.12, 315.08 2.27 M1.88 368.66 C96.82 257.87, 192.69 146.62, 320.73 1.88 M1.88 368.66 C84.84 272.46, 167.45 177.75, 320.73 1.88 M0.31 376.57 C124.07 234.01, 248.95 89.85, 325.71 2.24 M0.31 376.57 C104.92 257.18, 209.65 137.5, 325.71 2.24 M1.36 381.46 C100.95 269.51, 199.41 155.74, 331.36 1.84 M1.36 381.46 C97.96 269.72, 194.95 158.3, 331.36 1.84 M1.75 387.1 C83.86 293.27, 167.22 199.04, 336.34 2.2 M1.75 387.1 C129.76 240.66, 257.33 93.85, 336.34 2.2 M3.46 391.24 C121.17 257.97, 236.65 123.66, 341.99 1.81 M3.46 391.24 C120.75 254.06, 239.28 118.35, 341.99 1.81 M5.17 395.37 C140.14 238.64, 275.23 82.25, 346.97 2.17 M5.17 395.37 C112.75 271.96, 220.31 148.47, 346.97 2.17 M7.53 398.75 C127.19 260.39, 249.5 121.09, 352.62 1.77 M7.53 398.75 C81.29 312.59, 155.74 227.35, 352.62 1.77 M10.55 401.37 C109.19 289.28, 206.61 177.01, 357.6 2.13 M10.55 401.37 C83.44 317.08, 155.85 233.15, 357.6 2.13 M13.57 404 C94.46 310.69, 173.9 219.73, 363.25 1.74 M13.57 404 C136.76 261.43, 261.08 118.79, 363.25 1.74 M17.24 405.87 C155.96 247.21, 293.54 89.17, 368.23 2.1 M17.24 405.87 C151.81 249.02, 288 92.57, 368.23 2.1 M21.57 406.98 C153.42 254.7, 286.36 102.66, 373.88 1.7 M21.57 406.98 C95.44 320.24, 171.39 233.62, 373.88 1.7 M25.9 408.1 C156.61 257.26, 287.59 108.36, 378.86 2.06 M25.9 408.1 C128.28 289.22, 231.66 170.45, 378.86 2.06 M30.89 408.46 C169.41 247.51, 309.3 87.14, 383.85 2.42 M30.89 408.46 C144.45 280.57, 257 151.06, 383.85 2.42 M34.57 410.33 C138.21 289.8, 243.8 169.09, 389.49 2.03 M34.57 410.33 C107.64 326.98, 180.08 243.96, 389.49 2.03 M40.21 409.93 C174.91 254.88, 309.93 102.05, 394.48 2.39 M40.21 409.93 C171.41 259.9, 302.43 108.96, 394.48 2.39 M45.2 410.29 C185.12 248.88, 326.08 86.67, 400.12 1.99 M45.2 410.29 C160.97 275.81, 277 142.33, 400.12 1.99 M50.84 409.9 C125.75 323.45, 200.7 236.75, 405.11 2.35 M50.84 409.9 C176.06 264.4, 302.35 118.87, 405.11 2.35 M55.83 410.26 C180.46 266.72, 306.78 122.66, 410.75 1.96 M55.83 410.26 C160.39 289.24, 266.97 166.87, 410.75 1.96 M61.47 409.86 C160.37 294.36, 261.85 177.74, 415.74 2.32 M61.47 409.86 C145.75 310.87, 230.48 214.02, 415.74 2.32 M66.46 410.22 C200.98 256.16, 333.89 101.85, 421.38 1.93 M66.46 410.22 C168.66 291.91, 269.99 175.48, 421.38 1.93 M72.1 409.83 C204.6 258.28, 337.14 106.04, 426.37 2.29 M72.1 409.83 C164.42 303.18, 257.19 196.61, 426.37 2.29 M77.09 410.19 C197.39 272.53, 316.7 135.93, 432.01 1.89 M77.09 410.19 C179.24 293.24, 280.95 176.5, 432.01 1.89 M82.73 409.79 C208.51 266.73, 331.85 124.3, 437 2.25 M82.73 409.79 C170.64 308.34, 259.21 206.66, 437 2.25 M87.72 410.15 C174.1 311.54, 258.96 212.45, 442.64 1.86 M87.72 410.15 C166.72 319.22, 245.06 229.42, 442.64 1.86 M92.7 410.51 C195.16 293.71, 297.3 175.8, 447.63 2.22 M92.7 410.51 C200.61 286.44, 309.16 162.5, 447.63 2.22 M98.35 410.12 C222.44 268.03, 346.8 125.52, 453.27 1.82 M98.35 410.12 C185.71 310.31, 273.72 208.98, 453.27 1.82 M103.33 410.48 C227.8 267.21, 353.82 124.03, 458.26 2.18 M103.33 410.48 C214.15 283.69, 324.43 157.58, 458.26 2.18 M108.98 410.09 C198.55 304.38, 289.61 200.49, 463.9 1.79 M108.98 410.09 C197.77 306.86, 287.51 203.58, 463.9 1.79 M113.96 410.45 C220.88 287.07, 328.76 161.93, 468.89 2.15 M113.96 410.45 C195.24 318.4, 275.15 226.23, 468.89 2.15 M119.61 410.05 C194.01 325.17, 268.05 241.04, 474.53 1.75 M119.61 410.05 C244.39 266.96, 368.3 124.2, 474.53 1.75 M124.59 410.41 C265.27 247.4, 406.69 85.56, 479.52 2.11 M124.59 410.41 C264.23 249.55, 405.43 87.96, 479.52 2.11 M130.24 410.02 C273.36 246.19, 413.53 84, 485.17 1.72 M130.24 410.02 C266.71 255.06, 402.2 98.71, 485.17 1.72 M135.22 410.38 C238.16 294.28, 339.45 176.66, 490.15 2.08 M135.22 410.38 C222.83 311.56, 309.05 212.12, 490.15 2.08 M140.87 409.98 C234.69 303.97, 328.35 196.25, 495.8 1.68 M140.87 409.98 C220.55 317.97, 300.39 226.26, 495.8 1.68 M145.85 410.34 C258.8 281.58, 369.76 151.65, 500.78 2.04 M145.85 410.34 C277.84 261.17, 407.43 111.28, 500.78 2.04 M151.5 409.95 C286.17 254.97, 421.95 98.49, 505.77 2.4 M151.5 409.95 C250.81 295.38, 351.55 179.8, 505.77 2.4 M156.48 410.31 C237.75 317.31, 317.39 225.97, 511.41 2.01 M156.48 410.31 C246.44 308.57, 334.52 206.71, 511.41 2.01 M162.13 409.91 C299.21 251.51, 435.7 94.18, 516.4 2.37 M162.13 409.91 C298.05 250.59, 435.47 92.39, 516.4 2.37 M167.11 410.27 C258.17 304.06, 349.35 199.01, 522.04 1.98 M167.11 410.27 C292.18 265.88, 417.35 122.6, 522.04 1.98 M172.76 409.88 C259.63 310.71, 346.11 210.97, 527.03 2.34 M172.76 409.88 C280.52 285.23, 388.16 160.66, 527.03 2.34 M177.74 410.24 C263.93 313.66, 348.49 215.47, 532.67 1.94 M177.74 410.24 C252.57 322.71, 327.69 235.78, 532.67 1.94 M183.39 409.84 C317.46 254.32, 452.22 100.65, 537.66 2.3 M183.39 409.84 C263.22 318.19, 342.98 226.64, 537.66 2.3 M188.37 410.2 C297.31 286.59, 404.52 162.88, 543.3 1.91 M188.37 410.2 C314.83 264.12, 440.92 119.54, 543.3 1.91 M194.02 409.81 C317.18 270.41, 440.31 129.25, 548.29 2.27 M194.02 409.81 C290.7 299.02, 386.15 188.64, 548.29 2.27 M199 410.17 C330.53 258.56, 461.61 107.18, 553.93 1.87 M199 410.17 C331.13 256.28, 464.13 102.63, 553.93 1.87 M203.99 410.53 C331.25 263.61, 458.72 117.28, 558.92 2.23 M203.99 410.53 C342.85 248.56, 483.68 87.21, 558.92 2.23 M209.63 410.13 C302.17 303.24, 395.14 197.83, 564.56 1.84 M209.63 410.13 C301.81 305.79, 392.74 201.01, 564.56 1.84 M214.62 410.5 C345.41 258.83, 476.94 109.78, 569.55 2.2 M214.62 410.5 C315.07 296.96, 413.97 182.71, 569.55 2.2 M220.26 410.1 C358.05 253.67, 494.64 97, 575.19 1.8 M220.26 410.1 C310.74 304.76, 401.57 199.75, 575.19 1.8 M225.25 410.46 C359.92 256.76, 492.92 103.04, 580.18 2.16 M225.25 410.46 C307.86 312.57, 391.49 216.2, 580.18 2.16 M230.89 410.07 C319.93 307.52, 409.66 203.63, 585.82 1.77 M230.89 410.07 C307.64 322.9, 383.51 235.74, 585.82 1.77 M235.88 410.43 C350.09 276.92, 466.8 145.63, 590.81 2.13 M235.88 410.43 C345.45 284.53, 454.98 158.67, 590.81 2.13 M241.53 410.03 C375.14 259.2, 505.81 106.67, 596.45 1.73 M241.53 410.03 C328.22 309.72, 415.71 208.47, 596.45 1.73 M246.51 410.39 C316.86 326.04, 389.66 243.2, 601.44 2.09 M246.51 410.39 C375.35 263.64, 504.17 116.51, 601.44 2.09 M252.16 410 C372.22 272.7, 492.38 135.21, 607.08 1.7 M252.16 410 C341.76 306.64, 432.08 202.69, 607.08 1.7 M257.14 410.36 C382.67 268.84, 506.64 126, 612.07 2.06 M257.14 410.36 C329.55 329.35, 400.55 248.09, 612.07 2.06 M262.79 409.96 C386.34 267.04, 510.36 125.35, 617.06 2.42 M262.79 409.96 C338.12 320.78, 414.3 233.48, 617.06 2.42 M267.77 410.32 C390.47 271.78, 511.11 132.16, 622.7 2.02 M267.77 410.32 C359.54 306.71, 449.97 202.85, 622.7 2.02 M273.42 409.93 C378.94 289.45, 483.23 169.38, 627.69 2.38 M273.42 409.93 C374.89 291.82, 476.47 174.88, 627.69 2.38 M278.4 410.29 C387.1 285.31, 495.9 160.76, 633.33 1.99 M278.4 410.29 C379.36 292.79, 480.35 176.97, 633.33 1.99 M284.05 409.89 C376.14 304.14, 468.04 197.36, 638.32 2.35 M284.05 409.89 C390.6 286.24, 498.68 162.26, 638.32 2.35 M289.03 410.25 C362.59 325.16, 437.71 238.91, 643.96 1.96 M289.03 410.25 C387.89 297.21, 487.34 183.16, 643.96 1.96 M294.68 409.86 C373.8 316.72, 453.56 225.87, 648.95 2.32 M294.68 409.86 C398.48 290.92, 500.94 173.36, 648.95 2.32 M299.66 410.22 C433.42 259.39, 565.85 107.86, 654.59 1.92 M299.66 410.22 C425.56 264.43, 552.41 117.87, 654.59 1.92 M305.31 409.82 C434.77 258.27, 565.11 107.45, 659.58 2.28 M305.31 409.82 C422.74 273.73, 541.47 137.81, 659.58 2.28 M310.29 410.18 C436.54 265.43, 562.67 121.16, 665.22 1.89 M310.29 410.18 C407.23 301.32, 502.97 190.51, 665.22 1.89 M315.94 409.79 C443.18 264.17, 570.93 116.97, 670.21 2.25 M315.94 409.79 C429.33 281.68, 541.2 152.82, 670.21 2.25 M320.92 410.15 C416.03 301.5, 511.55 191.72, 675.85 1.85 M320.92 410.15 C426.35 291.13, 531.28 170.02, 675.85 1.85 M325.91 410.51 C422.19 301.04, 517.28 190.84, 680.84 2.21 M325.91 410.51 C465.65 250.41, 605.61 90.12, 680.84 2.21 M331.55 410.12 C422.04 306.25, 512.07 203.56, 686.48 1.82 M331.55 410.12 C453.99 269.77, 574.74 131, 686.48 1.82 M336.54 410.48 C426.97 307.24, 516.09 203.39, 691.47 2.18 M336.54 410.48 C443 289.1, 549.37 166.62, 691.47 2.18 M342.18 410.08 C419.85 320.78, 498.5 232.34, 697.11 1.78 M342.18 410.08 C427.81 309.53, 515.41 209.33, 697.11 1.78 M347.17 410.44 C444.69 297.27, 542.92 184.25, 702.1 2.14 M347.17 410.44 C437.36 305.82, 527.3 203.39, 702.1 2.14 M352.81 410.05 C461.45 286.56, 568.12 163.14, 707.74 1.75 M352.81 410.05 C450.99 297.75, 549.18 184.72, 707.74 1.75 M357.8 410.41 C493.67 251.55, 630.48 94.73, 712.73 2.11 M357.8 410.41 C444.74 311.38, 531.62 211.41, 712.73 2.11 M363.44 410.01 C502.89 250.59, 643.72 89.86, 719.03 0.96 M363.44 410.01 C447.45 314.87, 529.68 219.6, 719.03 0.96 M368.43 410.37 C451.33 314.28, 533.9 219.78, 724.01 1.32 M368.43 410.37 C493.64 266.06, 619.4 121.74, 724.01 1.32 M374.07 409.98 C453.37 318.86, 531.01 228.06, 727.69 3.19 M374.07 409.98 C494.17 272.13, 614.07 134.8, 727.69 3.19 M379.06 410.34 C503.63 264.58, 630.51 119.61, 732.02 4.3 M379.06 410.34 C458.98 316.21, 540.11 222.51, 732.02 4.3 M384.7 409.94 C481.2 299.15, 576.16 189.7, 737.01 4.66 M384.7 409.94 C509.2 266.33, 633.63 122.08, 737.01 4.66 M389.69 410.3 C494.59 286.53, 601.83 164.94, 740.03 7.29 M389.69 410.3 C463.9 326.14, 538.75 239.92, 740.03 7.29 M395.33 409.91 C486.13 304.39, 577.7 198.7, 742.39 10.67 M395.33 409.91 C487.23 304.22, 579.14 197.89, 742.39 10.67 M400.32 410.27 C503.21 290.71, 607.75 171.23, 745.41 13.29 M400.32 410.27 C475.03 326.57, 548.59 242.13, 745.41 13.29 M405.96 409.87 C496.06 305.53, 587.05 200.01, 747.11 17.43 M405.96 409.87 C538.94 257.84, 671.15 106.28, 747.11 17.43 M410.95 410.23 C542.08 260.61, 671.54 112.72, 750.13 20.05 M410.95 410.23 C488.25 322.67, 565.25 235.01, 750.13 20.05 M416.59 409.84 C549.56 257.93, 682.44 104.91, 750.53 25.69 M416.59 409.84 C506.64 308.45, 595.54 206.96, 750.53 25.69 M421.58 410.2 C510.25 309.39, 597.46 208.03, 749.61 32.85 M421.58 410.2 C493.29 325.31, 566.64 240.52, 749.61 32.85 M427.22 409.81 C530.02 293.92, 631.55 176.78, 750 38.49 M427.22 409.81 C549.51 268.5, 671.25 127.97, 750 38.49 M432.21 410.17 C522.7 307.91, 613.4 203.08, 749.74 44.89 M432.21 410.17 C512.86 316.86, 595.44 222.44, 749.74 44.89 M437.2 410.53 C538.47 293.61, 640.25 178.42, 750.14 50.53 M437.2 410.53 C507.17 327.4, 578.63 245.47, 750.14 50.53 M442.84 410.13 C516.31 325.61, 590.9 240.09, 749.88 56.93 M442.84 410.13 C555.61 280.91, 667.63 151.78, 749.88 56.93 M447.83 410.49 C528.77 316.84, 611.58 222.32, 749.61 63.32 M447.83 410.49 C524.78 323.29, 600.75 236.56, 749.61 63.32 M453.47 410.1 C557.06 292.44, 660.87 172.16, 750.01 68.97 M453.47 410.1 C528.21 321.78, 603.3 235.28, 750.01 68.97 M458.46 410.46 C535.53 322.3, 612.54 233.17, 749.75 75.37 M458.46 410.46 C550.18 306.08, 641.5 201.86, 749.75 75.37 M464.1 410.06 C556.63 304.53, 647.48 199.7, 750.14 81.01 M464.1 410.06 C524.73 337.38, 587.89 265.29, 750.14 81.01 M469.09 410.42 C562.79 304.02, 656.23 198.17, 749.88 87.41 M469.09 410.42 C526.66 343.95, 584.37 277.36, 749.88 87.41 M474.73 410.03 C543.47 329.9, 611.48 251.3, 749.62 93.8 M474.73 410.03 C538.29 337.66, 601.9 264.02, 749.62 93.8 M479.72 410.39 C578.92 297.21, 676.99 185.13, 750.01 99.45 M479.72 410.39 C576.22 300.68, 672.32 188.97, 750.01 99.45 M485.36 409.99 C574.3 309.62, 663.92 207.36, 749.75 105.84 M485.36 409.99 C548.19 335.59, 611.98 261.45, 749.75 105.84 M490.35 410.35 C594.25 292.79, 696.4 176.05, 750.15 111.49 M490.35 410.35 C573.64 315.98, 657.11 221.74, 750.15 111.49 M495.99 409.96 C590.75 301.52, 685.14 193.09, 749.89 117.89 M495.99 409.96 C567.63 326.88, 639.38 244.37, 749.89 117.89 M500.98 410.32 C574.66 323.39, 647.66 238.11, 749.62 124.28 M500.98 410.32 C568.53 333.43, 637.11 256.28, 749.62 124.28 M506.62 409.92 C565.87 341.95, 626.39 274.74, 750.02 129.93 M506.62 409.92 C593.31 308.4, 681.21 206.89, 750.02 129.93 M511.61 410.28 C584.04 330.71, 655.46 247.85, 749.76 136.32 M511.61 410.28 C590.34 318.41, 669.5 227.2, 749.76 136.32 M517.25 409.89 C571.76 346.73, 625.94 286.04, 750.15 141.97 M517.25 409.89 C604.45 309.51, 692 209.79, 750.15 141.97 M522.24 410.25 C582.96 340.96, 643.7 270.42, 749.89 148.37 M522.24 410.25 C578.95 347.89, 634.57 283.04, 749.89 148.37 M527.88 409.85 C599.81 325.81, 669.31 245.96, 749.63 154.76 M527.88 409.85 C614.32 309.87, 700.55 212.29, 749.63 154.76 M532.87 410.21 C577.02 358.52, 621.51 305.49, 750.02 160.41 M532.87 410.21 C591.83 341.03, 652.23 271.32, 750.02 160.41 M538.51 409.82 C596.83 342.39, 656.96 273.84, 749.76 166.8 M538.51 409.82 C614.04 325.02, 686.63 240.23, 749.76 166.8 M543.5 410.18 C623.11 318.69, 702.94 225.24, 750.16 172.45 M543.5 410.18 C612.33 329.53, 681.1 249.65, 750.16 172.45 M548.49 410.54 C623.94 325.99, 699.25 237.96, 749.9 178.84 M548.49 410.54 C627.68 320.84, 705.87 229.44, 749.9 178.84 M554.13 410.15 C593.37 363.99, 634.02 316.64, 749.63 185.24 M554.13 410.15 C603.69 352.81, 652.33 296.29, 749.63 185.24 M559.12 410.51 C610.18 348.8, 661.91 289.39, 750.03 190.89 M559.12 410.51 C620.07 339.99, 683.44 268.75, 750.03 190.89 M564.76 410.11 C624.13 344.23, 682.04 275.14, 749.77 197.28 M564.76 410.11 C618.6 349.56, 670.68 288.67, 749.77 197.28 M569.75 410.47 C628.2 344.04, 689.79 275.17, 750.16 202.93 M569.75 410.47 C631.49 340.5, 692.04 270.91, 750.16 202.93 M575.39 410.08 C630.18 349.27, 681.2 288.65, 749.9 209.32 M575.39 410.08 C614.86 363.76, 653.21 319.36, 749.9 209.32 M580.38 410.44 C631.79 350.15, 681.91 291.72, 749.64 215.72 M580.38 410.44 C631.96 351.12, 683.01 293.42, 749.64 215.72 M586.02 410.04 C624.37 370.77, 658.13 329.92, 750.03 221.37 M586.02 410.04 C635.23 353.88, 684.24 298.21, 750.03 221.37 M591.01 410.4 C629.94 367.69, 670.24 323.92, 749.77 227.76 M591.01 410.4 C631.44 362.28, 672.91 317.48, 749.77 227.76 M596.65 410.01 C634.35 366.91, 669.51 326.14, 750.17 233.41 M596.65 410.01 C634.73 365.46, 673.7 320.84, 750.17 233.41 M601.64 410.37 C658.85 345.06, 718.61 276.51, 749.91 239.8 M601.64 410.37 C650.49 354.68, 698.87 297.97, 749.91 239.8 M607.28 409.97 C661.66 346.58, 719.83 282.63, 749.64 246.2 M607.28 409.97 C647.06 367.57, 684.66 324.48, 749.64 246.2 M612.27 410.33 C654.66 365.72, 693.86 318.71, 750.04 251.84 M612.27 410.33 C646.33 371.61, 679.7 333.62, 750.04 251.84 M617.91 409.94 C654.42 371.69, 686.34 329.85, 749.78 258.24 M617.91 409.94 C649.49 370.5, 684 332.21, 749.78 258.24 M622.9 410.3 C659.03 367.47, 693.44 327.94, 750.17 263.89 M622.9 410.3 C669.01 355.47, 717.08 300.55, 750.17 263.89 M628.54 409.9 C662.18 373.05, 692.99 335.63, 749.91 270.28 M628.54 409.9 C669.07 361.26, 712.2 313.71, 749.91 270.28 M633.53 410.26 C675.85 359.96, 721.63 309.31, 749.65 276.68 M633.53 410.26 C666.29 372.79, 698.87 333.94, 749.65 276.68 M639.17 409.87 C680.68 361.02, 722.41 313.91, 750.04 282.32 M639.17 409.87 C664.99 380.35, 690.39 351.54, 750.04 282.32 M644.16 410.23 C669.03 383.64, 691.47 355.61, 749.78 288.72 M644.16 410.23 C667.53 380.79, 693.11 351.69, 749.78 288.72 M649.8 409.84 C687.14 364.88, 727.99 319.79, 750.18 294.36 M649.8 409.84 C689.89 364.41, 728.48 321.04, 750.18 294.36 M654.79 410.2 C685.72 372.11, 720.71 336.41, 749.92 300.76 M654.79 410.2 C677.31 385.38, 700.49 357.83, 749.92 300.76 M660.43 409.8 C684.53 382.23, 707.05 356.01, 749.65 307.16 M660.43 409.8 C682.33 384.5, 704.28 359.43, 749.65 307.16 M665.42 410.16 C685.76 388.01, 706.03 364.2, 750.05 312.8 M665.42 410.16 C685.09 389.03, 702.99 368.16, 750.05 312.8 M670.4 410.52 C689.96 391.06, 705.96 371.39, 749.79 319.2 M670.4 410.52 C693.77 384.97, 716.43 359.36, 749.79 319.2 M676.05 410.13 C700.19 381.57, 722.97 354.31, 750.18 324.84 M676.05 410.13 C694.66 390.7, 711.69 369.57, 750.18 324.84 M681.03 410.49 C708.06 380.37, 734.37 348.05, 749.92 331.24 M681.03 410.49 C698.69 388.88, 717.63 367.08, 749.92 331.24 M686.68 410.09 C701.94 396.14, 713.3 377.2, 749.66 337.64 M686.68 410.09 C702.72 389.93, 720.65 369.25, 749.66 337.64 M691.66 410.45 C714.1 383.84, 735.69 359.4, 750.05 343.28 M691.66 410.45 C705.28 395.23, 718.78 378.84, 750.05 343.28 M697.31 410.06 C708.8 398.29, 718.5 383.6, 749.79 349.68 M697.31 410.06 C711.13 393.44, 725.5 376.96, 749.79 349.68 M702.29 410.42 C714.42 394.19, 732.4 379.35, 750.19 355.32 M702.29 410.42 C717.99 393.16, 731.88 375.48, 750.19 355.32 M707.94 410.02 C719.04 400.63, 727.14 388.24, 749.92 361.72 M707.94 410.02 C718.93 397.98, 729.72 385.09, 749.92 361.72 M712.92 410.38 C725.36 394.03, 737.67 379.67, 749.66 368.12 M712.92 410.38 C722.78 399.15, 733.61 386.93, 749.66 368.12 M719.22 409.23 C725.68 401.68, 730.87 394.33, 750.06 373.76 M719.22 409.23 C726.66 400.1, 734.06 392.25, 750.06 373.76 M724.87 408.84 C732.7 401.15, 740.13 392.2, 751.76 377.9 M724.87 408.84 C731.93 399.99, 739.53 392.08, 751.76 377.9 M732.48 406.18 C741.34 398.72, 745.87 390.31, 750.85 385.05 M732.48 406.18 C737.65 400, 742.99 393.68, 750.85 385.05" stroke="#b2f2bb" stroke-width="0.5" fill="none"></path><path d="M32 0 C245.59 -0.04, 460.17 0.55, 717.31 0 M32 0 C235.8 2.7, 439.9 2.63, 717.31 0 M717.31 0 C738.46 -0.45, 749.94 9.17, 749.31 32 M717.31 0 C740.57 -0.78, 749.8 11.42, 749.31 32 M749.31 32 C749.19 162.38, 749.84 292.83, 749.31 375.81 M749.31 32 C751.13 126.45, 751.37 219.57, 749.31 375.81 M749.31 375.81 C747.35 398.04, 740.52 406.82, 717.31 407.81 M749.31 375.81 C750.93 395.64, 738.92 409.24, 717.31 407.81 M717.31 407.81 C505.31 407.75, 295.48 408.41, 32 407.81 M717.31 407.81 C481.48 406.34, 245.49 406.59, 32 407.81 M32 407.81 C11.55 406.37, 1.1 396.39, 0 375.81 M32 407.81 C10.4 407.24, 1.12 399.36, 0 375.81 M0 375.81 C0.58 273.15, 3.13 173.36, 0 32 M0 375.81 C1.41 296.41, 1.45 217.93, 0 32 M0 32 C-1.48 10.09, 8.67 1.08, 32 0 M0 32 C1.65 8.57, 12.59 -0.81, 32 0" stroke="#1e1e1e" stroke-width="1" fill="none"></path></g><g stroke-linecap="round" transform="translate(1312.329297156175 1597.635853474393) rotate(0 87.44732215836325 92.42067185819633)"><path d="M32 0 C58.72 1.2, 87.16 -1.23, 142.89 0 M32 0 C62.26 -0.05, 92.81 -1.31, 142.89 0 M142.89 0 C163.86 0, 172.98 12.65, 174.89 32 M142.89 0 C162.34 1.53, 174.42 8.71, 174.89 32 M174.89 32 C172.76 73.06, 171.95 113.81, 174.89 152.84 M174.89 32 C175.32 77.89, 174.66 124.54, 174.89 152.84 M174.89 152.84 C174.98 174.62, 163.87 185.09, 142.89 184.84 M174.89 152.84 C172.68 174.61, 162.78 183.22, 142.89 184.84 M142.89 184.84 C103.17 184.08, 65.89 185.43, 32 184.84 M142.89 184.84 C112.61 183.89, 81.14 184.04, 32 184.84 M32 184.84 C9.95 185.3, -0.69 172.53, 0 152.84 M32 184.84 C9.97 186.35, 2.13 175.13, 0 152.84 M0 152.84 C-1.2 123.43, -0.36 92.78, 0 32 M0 152.84 C-1.62 113.51, -0.88 73.79, 0 32 M0 32 C-1.42 9.13, 8.7 1.08, 32 0 M0 32 C-1.74 11.4, 12.82 0.87, 32 0" stroke="#1e1e1e" stroke-width="1" fill="none"></path></g><g transform="translate(1337.1958104858036 1609.2402942994192) rotate(0 28.39997100830078 12.5)"><text x="0" y="17.52" font-family="Virgil, Segoe UI Emoji" font-size="20px" fill="#1e1e1e" text-anchor="start" style="white-space: pre;" direction="ltr" dominant-baseline="alphabetic">Filter:</text></g><g transform="translate(565.5043445629747 1611.726914276444) rotate(0 30.949966430664062 12.5)"><text x="0" y="17.52" font-family="Virgil, Segoe UI Emoji" font-size="20px" fill="#1e1e1e" text-anchor="start" style="white-space: pre;" direction="ltr" dominant-baseline="alphabetic">Notes:</text></g><g transform="translate(1362.8913748247578 1648.1978527531298) rotate(0 21.02154541015625 9.728420738042985)"><text x="0" y="13.635354506441061" font-family="Virgil, Segoe UI Emoji" font-size="15.56547318086879px" fill="#1e1e1e" text-anchor="start" style="white-space: pre;" direction="ltr" dominant-baseline="alphabetic">Order</text></g><g transform="translate(1367.4070962366561 1675.2920104000143) rotate(0 19.566680908203125 9.728420738042985)"><text x="0" y="13.635354506441058" font-family="Virgil, Segoe UI Emoji" font-size="15.565473180868787px" fill="#1e1e1e" text-anchor="start" style="white-space: pre;" direction="ltr" dominant-baseline="alphabetic">Tags</text></g><g transform="translate(1368.6934776525022 1704.5620018935188) rotate(0 17.03998565673828 12.5)"><text x="0" y="17.52" font-family="Virgil, Segoe UI Emoji" font-size="20px" fill="#1e1e1e" text-anchor="start" style="white-space: pre;" direction="ltr" dominant-baseline="alphabetic">Age</text></g><g stroke-linecap="round" transform="translate(562.188893068193 1644.882291512564) rotate(0 74.18515558594595 80.81624671113923)"><path d="M32 0 C57.37 2.24, 85.14 -0.97, 116.37 0 M32 0 C53.38 -0.13, 73.4 -0.1, 116.37 0 M116.37 0 C136.97 1.71, 148.85 9.18, 148.37 32 M116.37 0 C136.33 1.54, 148.52 12.06, 148.37 32 M148.37 32 C146.88 63.61, 148.84 96.58, 148.37 129.63 M148.37 32 C148.3 57.38, 149.54 81.87, 148.37 129.63 M148.37 129.63 C147.5 149.17, 137.91 160.35, 116.37 161.63 M148.37 129.63 C150.57 149.25, 136.06 163.83, 116.37 161.63 M116.37 161.63 C91.9 160.08, 67.77 162.16, 32 161.63 M116.37 161.63 C91.52 161.9, 65.17 161.08, 32 161.63 M32 161.63 C11.97 162.9, 1.36 150.63, 0 129.63 M32 161.63 C11.01 162.14, 1.42 153.19, 0 129.63 M0 129.63 C1.25 94.54, 0.93 57.87, 0 32 M0 129.63 C-1.31 103.29, -1.44 75.05, 0 32 M0 32 C-1.55 8.77, 12.64 0.75, 32 0 M0 32 C-1.4 11, 9.64 -0.29, 32 0" stroke="#1e1e1e" stroke-width="1" fill="none"></path></g><g stroke-linecap="round" transform="translate(732.7059818692084 1646.9372813205694) rotate(0 74.18515558594595 80.81624671113923)"><path d="M32 0 C60.83 0.97, 91.51 1.43, 116.37 0 M32 0 C54.87 -0.63, 77.03 -1.14, 116.37 0 M116.37 0 C137.44 1.01, 150.3 11.58, 148.37 32 M116.37 0 C136.29 -1.74, 149.02 11.84, 148.37 32 M148.37 32 C150.37 71.22, 147.82 106.81, 148.37 129.63 M148.37 32 C148.64 57.94, 149.72 83.35, 148.37 129.63 M148.37 129.63 C147.34 150.69, 135.82 161.23, 116.37 161.63 M148.37 129.63 C147.96 152.19, 136.57 160.54, 116.37 161.63 M116.37 161.63 C97.31 162.65, 76.74 161.44, 32 161.63 M116.37 161.63 C94.5 161.58, 72.93 160.95, 32 161.63 M32 161.63 C9.17 162.3, 0.06 152.28, 0 129.63 M32 161.63 C10.7 162.53, 1.56 151.31, 0 129.63 M0 129.63 C1.23 104.05, -2.24 81.56, 0 32 M0 129.63 C0.71 107.89, 0.5 88.25, 0 32 M0 32 C0.55 9.82, 9.15 1.41, 32 0 M0 32 C-1.59 11.29, 10.27 0.93, 32 0" stroke="#1e1e1e" stroke-width="1" fill="none"></path></g><g stroke-linecap="round" transform="translate(909.7073689701464 1645.0895385869262) rotate(0 74.18515558594595 80.81624671113923)"><path d="M32 0 C64.87 1.03, 92.65 0.62, 116.37 0 M32 0 C63.57 1.06, 95.96 0.63, 116.37 0 M116.37 0 C137.36 0.81, 147.73 9.41, 148.37 32 M116.37 0 C139.23 1.62, 148.17 8.97, 148.37 32 M148.37 32 C148.24 52.46, 150.7 75.74, 148.37 129.63 M148.37 32 C148.77 52.57, 148.66 75.52, 148.37 129.63 M148.37 129.63 C148.58 151.25, 138.39 160.06, 116.37 161.63 M148.37 129.63 C147.77 149.86, 139.73 163.59, 116.37 161.63 M116.37 161.63 C84.81 159.23, 55.48 161.6, 32 161.63 M116.37 161.63 C85.08 161.22, 53.75 161.09, 32 161.63 M32 161.63 C12.1 160.77, -0.09 152.87, 0 129.63 M32 161.63 C11.02 160.38, 1.17 149.02, 0 129.63 M0 129.63 C0.44 91.69, 0.86 54.72, 0 32 M0 129.63 C-1.35 91.14, -0.54 53.12, 0 32 M0 32 C1.79 12.24, 10.43 1.63, 32 0 M0 32 C-2.01 12.17, 12.04 2.3, 32 0" stroke="#1e1e1e" stroke-width="1" fill="none"></path></g><g stroke-linecap="round" transform="translate(1086.2683932732414 1645.0895385869262) rotate(0 74.18515558594595 80.81624671113923)"><path d="M32 0 C62.1 0.41, 88.04 -1.65, 116.37 0 M32 0 C63.08 0.17, 94.19 -0.86, 116.37 0 M116.37 0 C139.03 1.41, 148.2 9.19, 148.37 32 M116.37 0 C136.07 0.78, 147.94 10.14, 148.37 32 M148.37 32 C147.71 52.04, 149.96 72.59, 148.37 129.63 M148.37 32 C148.71 54.05, 148.95 75.03, 148.37 129.63 M148.37 129.63 C147.85 150.01, 139.47 163.34, 116.37 161.63 M148.37 129.63 C149.65 149.77, 135.8 159.85, 116.37 161.63 M116.37 161.63 C99.72 162.72, 79.71 162.47, 32 161.63 M116.37 161.63 C93.86 160.89, 69.88 162.27, 32 161.63 M32 161.63 C10.97 160.54, 1.02 149.27, 0 129.63 M32 161.63 C12.73 160.77, 0.6 151.06, 0 129.63 M0 129.63 C1.52 100.91, 0.65 68.47, 0 32 M0 129.63 C0.95 106.93, -0.06 83.48, 0 32 M0 32 C-1.75 11.97, 11.86 2, 32 0 M0 32 C0.9 10.87, 11.07 1.78, 32 0" stroke="#1e1e1e" stroke-width="1" fill="none"></path></g><g stroke-linecap="round" transform="translate(562.853693833585 1821.5815249528132) rotate(0 74.18515558594595 80.81624671113923)"><path d="M32 0 C58.97 0.97, 82.84 2.07, 116.37 0 M32 0 C61.19 -1.08, 91.97 -0.91, 116.37 0 M116.37 0 C138.62 -1.83, 147.44 8.75, 148.37 32 M116.37 0 C139.98 -0.21, 149.72 9.98, 148.37 32 M148.37 32 C150.88 53.95, 149.71 80.53, 148.37 129.63 M148.37 32 C147.5 66.33, 147.6 101.13, 148.37 129.63 M148.37 129.63 C150.19 151.49, 139 161.07, 116.37 161.63 M148.37 129.63 C147.81 148.93, 139.04 161.09, 116.37 161.63 M116.37 161.63 C84.81 162.74, 54.3 163.22, 32 161.63 M116.37 161.63 C86.5 161.98, 54.28 161.48, 32 161.63 M32 161.63 C12.18 160.6, 0.46 151.99, 0 129.63 M32 161.63 C12.92 160.64, -1.73 149.64, 0 129.63 M0 129.63 C-0.95 105.23, 1.02 78.61, 0 32 M0 129.63 C1.78 99.65, 0.46 69.47, 0 32 M0 32 C1.76 9.7, 10.54 -1.17, 32 0 M0 32 C1.93 8.85, 10.86 0.64, 32 0" stroke="#1e1e1e" stroke-width="1" fill="none"></path></g><g stroke-linecap="round" transform="translate(733.3707826346003 1823.6365147608185) rotate(0 74.18515558594595 80.81624671113923)"><path d="M32 0 C55.64 1.59, 81.3 -1.58, 116.37 0 M32 0 C65.37 0.12, 98.81 -0.67, 116.37 0 M116.37 0 C136.78 -1.91, 150.35 10.48, 148.37 32 M116.37 0 C139.05 -0.68, 147.02 12.31, 148.37 32 M148.37 32 C149.9 62.27, 150.26 89.2, 148.37 129.63 M148.37 32 C147.22 70.49, 148.67 107.73, 148.37 129.63 M148.37 129.63 C149.66 150.4, 137.22 159.86, 116.37 161.63 M148.37 129.63 C149.71 150.43, 139.52 161.01, 116.37 161.63 M116.37 161.63 C88.75 163.09, 58.66 160.32, 32 161.63 M116.37 161.63 C87.29 161.15, 59.78 161.13, 32 161.63 M32 161.63 C11.13 162.66, 1.96 150.1, 0 129.63 M32 161.63 C8.93 160.3, -0.83 148.8, 0 129.63 M0 129.63 C1.01 108.29, 1.02 83.91, 0 32 M0 129.63 C-1.31 90.64, 0.07 52.37, 0 32 M0 32 C-0.13 9.5, 12.35 -1.58, 32 0 M0 32 C0.2 11.31, 11.97 1.57, 32 0" stroke="#1e1e1e" stroke-width="1" fill="none"></path></g><g stroke-linecap="round" transform="translate(910.3721697355384 1821.7887720271754) rotate(0 74.18515558594595 80.81624671113923)"><path d="M32 0 C61.98 -2.04, 91.65 -2.21, 116.37 0 M32 0 C55.28 -0.81, 77.19 -0.85, 116.37 0 M116.37 0 C139.68 -0.18, 149.54 10.07, 148.37 32 M116.37 0 C136.35 1.64, 148.27 12.75, 148.37 32 M148.37 32 C149.69 52.95, 150.42 73.61, 148.37 129.63 M148.37 32 C148.76 62.91, 148.49 93.02, 148.37 129.63 M148.37 129.63 C147.89 149.19, 138.87 161.16, 116.37 161.63 M148.37 129.63 C150.19 150.35, 138.85 162.11, 116.37 161.63 M116.37 161.63 C89.49 160.52, 60.78 164.07, 32 161.63 M116.37 161.63 C91.7 160.7, 65.75 161.73, 32 161.63 M32 161.63 C12.63 160.77, -1.51 149.81, 0 129.63 M32 161.63 C9.84 159.46, -1.75 148.81, 0 129.63 M0 129.63 C0.05 91.69, 1.82 59.31, 0 32 M0 129.63 C1.37 101.84, 0.42 74.43, 0 32 M0 32 C1.68 9.08, 10.84 0.56, 32 0 M0 32 C1.3 12.24, 12.21 -1.01, 32 0" stroke="#1e1e1e" stroke-width="1" fill="none"></path></g><g stroke-linecap="round" transform="translate(1086.9331940386332 1821.7887720271754) rotate(0 74.18515558594595 80.81624671113923)"><path d="M32 0 C67.39 -0.88, 98.46 0.9, 116.37 0 M32 0 C55.76 -0.18, 81.44 0.68, 116.37 0 M116.37 0 C138.88 -0.59, 147.2 12.09, 148.37 32 M116.37 0 C137.6 2.08, 146.52 11.41, 148.37 32 M148.37 32 C150.59 66.96, 149.14 103.36, 148.37 129.63 M148.37 32 C149.91 68.4, 149.02 104.48, 148.37 129.63 M148.37 129.63 C149.53 150.5, 139.28 161.09, 116.37 161.63 M148.37 129.63 C149.52 151.44, 138.49 163.81, 116.37 161.63 M116.37 161.63 C86.94 162.9, 55.94 160.15, 32 161.63 M116.37 161.63 C95.42 161.71, 74.98 160.76, 32 161.63 M32 161.63 C9.16 160.48, -0.72 149.08, 0 129.63 M32 161.63 C8.92 159.48, 1.58 151.08, 0 129.63 M0 129.63 C1.81 99.4, -0.45 64.85, 0 32 M0 129.63 C-0.93 105.69, -0.02 82.12, 0 32 M0 32 C0.17 11.22, 11.8 1.37, 32 0 M0 32 C1.54 9.66, 11.53 1.24, 32 0" stroke="#1e1e1e" stroke-width="1" fill="none"></path></g><g stroke-linecap="round" transform="translate(1257.6224661359784 1617.5290954940342) rotate(0 8.288942296337268 187.32790098154078)"><path d="M1.1 0.96 C1.1 0.96, 1.1 0.96, 1.1 0.96 M1.1 0.96 C1.1 0.96, 1.1 0.96, 1.1 0.96 M0.84 7.36 C3.03 4.28, 4.52 2.12, 6.75 0.56 M0.84 7.36 C2.91 5.6, 3.99 3.29, 6.75 0.56 M0.58 13.75 C3.7 8.74, 8.95 2.39, 12.39 0.17 M0.58 13.75 C2.87 11.46, 5.3 8.55, 12.39 0.17 M0.32 20.15 C4.71 16.5, 7.65 11.95, 15.41 2.79 M0.32 20.15 C5.05 15.59, 8.13 11.14, 15.41 2.79 M0.71 25.8 C7.04 18.55, 10.89 15.18, 16.46 7.68 M0.71 25.8 C5.85 21.46, 8.96 16.86, 16.46 7.68 M0.45 32.19 C7.57 25.32, 14.32 18.46, 16.85 13.33 M0.45 32.19 C4 26.64, 8.41 21.26, 16.85 13.33 M0.85 37.84 C6.98 30.57, 13.43 26.57, 16.59 19.72 M0.85 37.84 C4.09 32.6, 8.3 29.1, 16.59 19.72 M0.59 44.23 C5.27 40.73, 6.5 36.31, 16.99 25.37 M0.59 44.23 C7.32 37.72, 11.98 31.09, 16.99 25.37 M0.32 50.63 C2.94 46.33, 9.07 42.08, 16.73 31.76 M0.32 50.63 C6.31 43.99, 13.21 36.19, 16.73 31.76 M0.72 56.27 C6.43 50.86, 8.74 45.4, 16.46 38.16 M0.72 56.27 C4.22 51.51, 7.21 48.52, 16.46 38.16 M0.46 62.67 C2.46 57.16, 6.04 52.73, 16.86 43.8 M0.46 62.67 C5.13 56.25, 12.38 49.13, 16.86 43.8 M0.85 68.32 C3.48 64.62, 10.35 58.89, 16.6 50.2 M0.85 68.32 C4.93 62.74, 10.33 56.84, 16.6 50.2 M0.59 74.71 C7.57 66.77, 13.64 63.37, 16.99 55.85 M0.59 74.71 C2.94 70.01, 7.79 66.39, 16.99 55.85 M0.33 81.11 C3.42 78.43, 7.29 73.29, 16.73 62.24 M0.33 81.11 C3.26 77.19, 7.1 74.31, 16.73 62.24 M0.72 86.75 C6.24 79.45, 11.51 72.03, 16.47 68.64 M0.72 86.75 C6.78 80.86, 10.95 73.78, 16.47 68.64 M0.46 93.15 C5.71 88.79, 12.69 79.55, 16.86 74.28 M0.46 93.15 C5.78 86.49, 12.23 79.1, 16.86 74.28 M0.86 98.8 C3.8 93.31, 6.72 92.09, 16.6 80.68 M0.86 98.8 C7.06 91.21, 12.78 85.82, 16.6 80.68 M0.59 105.19 C7.17 99.94, 12.16 94.46, 17 86.33 M0.59 105.19 C6.42 99, 9.25 94.89, 17 86.33 M0.33 111.59 C5.76 106.62, 10.82 99.32, 16.73 92.72 M0.33 111.59 C5.25 106.19, 11.45 100.39, 16.73 92.72 M0.73 117.23 C7.83 109.89, 11.25 102.98, 16.47 99.12 M0.73 117.23 C5.58 110.93, 11.75 105.35, 16.47 99.12 M0.47 123.63 C3.87 116.16, 10.54 113.21, 16.87 104.76 M0.47 123.63 C4.85 119.43, 9.04 114.1, 16.87 104.76 M0.86 129.27 C6.88 125.5, 9.29 120.97, 16.61 111.16 M0.86 129.27 C6.38 122.33, 12.08 117.25, 16.61 111.16 M0.6 135.67 C7.46 131.38, 12.53 122.45, 17 116.8 M0.6 135.67 C5.7 130.06, 10.78 123.88, 17 116.8 M0.34 142.07 C6.9 133.55, 12.67 127.22, 16.74 123.2 M0.34 142.07 C6.29 135.68, 11.44 128.97, 16.74 123.2 M0.73 147.71 C5.53 143.25, 8.63 136, 16.48 129.6 M0.73 147.71 C5.88 142.33, 11.55 135.41, 16.48 129.6 M0.47 154.11 C6 148.36, 7.19 146.47, 16.87 135.24 M0.47 154.11 C5.1 147.02, 12.09 141.68, 16.87 135.24 M0.87 159.75 C5.52 155.68, 9.21 151.45, 16.61 141.64 M0.87 159.75 C5.32 155.65, 10.1 150.77, 16.61 141.64 M0.6 166.15 C4.46 160.4, 8.33 157.59, 17.01 147.28 M0.6 166.15 C5.45 160.55, 11.45 154.42, 17.01 147.28 M0.34 172.55 C5.09 164.69, 11.48 157.68, 16.74 153.68 M0.34 172.55 C3.88 168.02, 6.96 164.77, 16.74 153.68 M0.74 178.19 C5.62 173.66, 8.72 168.25, 16.48 160.08 M0.74 178.19 C6.1 171.16, 11.82 166.13, 16.48 160.08 M0.48 184.59 C5.38 177.42, 12.86 170.88, 16.88 165.72 M0.48 184.59 C4.95 179.14, 10.03 173.94, 16.88 165.72 M0.87 190.23 C6.48 184.79, 13.88 175.51, 16.62 172.12 M0.87 190.23 C7.91 182.32, 13.91 176.07, 16.62 172.12 M0.61 196.63 C2.95 192.95, 7.75 189.22, 17.01 177.76 M0.61 196.63 C5.86 191.41, 9.54 186.05, 17.01 177.76 M0.35 203.03 C3.02 198.38, 9.1 195.9, 16.75 184.16 M0.35 203.03 C3.33 197.69, 7.55 194.53, 16.75 184.16 M0.74 208.67 C4.42 204.27, 6.39 202.03, 16.49 190.56 M0.74 208.67 C6.95 201.5, 10.92 195.75, 16.49 190.56 M0.48 215.07 C3.87 211.16, 8.16 208.92, 16.88 196.2 M0.48 215.07 C5.44 209.04, 10.11 203.83, 16.88 196.2 M0.88 220.71 C3.86 213.78, 10.13 209.46, 16.62 202.6 M0.88 220.71 C6.65 214.27, 12.23 208.25, 16.62 202.6 M0.61 227.11 C5.36 219.66, 15.09 211.98, 17.02 208.24 M0.61 227.11 C6.96 220.79, 10.75 213.99, 17.02 208.24 M0.35 233.51 C6.5 227, 10.81 223.37, 16.75 214.64 M0.35 233.51 C3.71 228.96, 7.52 225.34, 16.75 214.64 M0.75 239.15 C6.96 233.32, 12.65 224.99, 16.49 221.04 M0.75 239.15 C6.35 232.01, 10.8 226.97, 16.49 221.04 M0.49 245.55 C3.11 240.99, 6.47 238.34, 16.89 226.68 M0.49 245.55 C4.8 241.34, 9.19 235.93, 16.89 226.68 M0.88 251.19 C6.98 247.05, 10.1 240.26, 16.63 233.08 M0.88 251.19 C5.44 245.24, 10.87 240.08, 16.63 233.08 M0.62 257.59 C3.81 253.29, 6.53 249.16, 17.02 238.72 M0.62 257.59 C4.64 252.35, 10.68 246.33, 17.02 238.72 M0.36 263.99 C2.75 259.85, 9.72 256.43, 16.76 245.12 M0.36 263.99 C7.56 257.33, 13.43 250.31, 16.76 245.12 M0.75 269.63 C3.5 266.68, 6.71 262.59, 16.5 251.52 M0.75 269.63 C4.83 263.39, 9.53 259.59, 16.5 251.52 M0.49 276.03 C6.34 270.29, 12.6 263.43, 16.89 257.16 M0.49 276.03 C7.04 268.63, 12.33 262.69, 16.89 257.16 M0.89 281.67 C6.18 277.37, 7.76 270.76, 16.63 263.56 M0.89 281.67 C3.5 276.95, 7.29 274.64, 16.63 263.56 M0.62 288.07 C6.25 280.32, 12.95 274.88, 17.03 269.2 M0.62 288.07 C6.81 281.6, 12.74 274.67, 17.03 269.2 M0.36 294.47 C3.12 289.15, 11.34 283.94, 16.76 275.6 M0.36 294.47 C5.92 288.93, 10.99 282.5, 16.76 275.6 M0.76 300.11 C5.94 293.78, 11.04 286.5, 16.5 282 M0.76 300.11 C6.99 292.48, 12.55 286.46, 16.5 282 M0.5 306.51 C4.16 300.98, 8.7 296.54, 16.9 287.64 M0.5 306.51 C3.23 302.49, 8.39 298.36, 16.9 287.64 M0.23 312.91 C6.32 308.41, 8.28 300.17, 16.64 294.04 M0.23 312.91 C7.14 305.1, 11.7 299.15, 16.64 294.04 M0.63 318.55 C5.48 312.31, 11.12 305.36, 17.03 299.68 M0.63 318.55 C4.77 313.39, 9.41 308.06, 17.03 299.68 M0.37 324.95 C5.42 319.22, 10.02 316.24, 16.77 306.08 M0.37 324.95 C5.5 320.05, 10.53 313.08, 16.77 306.08 M0.76 330.59 C4.18 324.27, 10.62 317.57, 16.51 312.48 M0.76 330.59 C4.24 327.76, 6.97 322.94, 16.51 312.48 M0.5 336.99 C3.91 332.31, 11.89 326.4, 16.9 318.12 M0.5 336.99 C3.72 332.59, 8.68 326.77, 16.9 318.12 M0.24 343.39 C3.91 339.05, 8.49 334.69, 16.64 324.52 M0.24 343.39 C4.87 338.69, 8.32 332.93, 16.64 324.52 M0.63 349.03 C5.67 343.36, 6.23 339.25, 17.03 330.16 M0.63 349.03 C3.21 344.18, 7.28 341.71, 17.03 330.16 M0.37 355.43 C5.63 349.42, 12.06 343.24, 16.77 336.56 M0.37 355.43 C4.81 351.33, 9.06 345.99, 16.77 336.56 M0.77 361.07 C3.49 354.25, 10.63 351.86, 16.51 342.96 M0.77 361.07 C5.15 356.09, 9.9 350.14, 16.51 342.96 M0.51 367.47 C5.35 361.59, 11.87 352.05, 16.91 348.6 M0.51 367.47 C5.92 362.07, 9.99 354.73, 16.91 348.6 M1.56 372.36 C6.66 367.58, 9.94 360.46, 16.65 355 M1.56 372.36 C5.9 368.15, 8.44 364.55, 16.65 355 M5.23 374.23 C6.66 372.36, 11.87 366.83, 17.04 360.64 M5.23 374.23 C8.69 369.45, 12.46 365.05, 17.04 360.64 M10.22 374.59 C12.03 371.98, 15.06 370.72, 16.78 367.04 M10.22 374.59 C13.2 371.4, 14.84 369.27, 16.78 367.04 M2.04 374.14 C2.04 374.14, 2.04 374.14, 2.04 374.14 M2.04 374.14 C2.04 374.14, 2.04 374.14, 2.04 374.14 M8.44 374.41 C5.27 372.42, 3.54 369.15, 1.65 368.5 M8.44 374.41 C6.4 372.69, 3.67 370.72, 1.65 368.5 M13.33 373.35 C7.84 369.73, 5.3 366.22, 2.01 363.51 M13.33 373.35 C10.89 370.78, 7.59 368.62, 2.01 363.51 M17.46 371.65 C14.43 368.41, 8.79 363.42, 1.61 357.87 M17.46 371.65 C14.16 367.91, 10.22 365.12, 1.61 357.87 M19.33 367.97 C16.03 365.23, 8.46 359.03, 1.97 352.88 M19.33 367.97 C14.39 363.4, 11.38 359.59, 1.97 352.88 M18.93 362.33 C15.6 357.26, 9.87 354.18, 1.58 347.24 M18.93 362.33 C11.97 356.58, 6.23 350.52, 1.58 347.24 M19.29 357.34 C15.15 354.21, 9.1 349.89, 1.94 342.25 M19.29 357.34 C12.43 351.01, 7.08 346.97, 1.94 342.25 M18.9 351.7 C10.93 346.48, 5.81 341.02, 1.54 336.61 M18.9 351.7 C14.21 346.97, 8.46 342.13, 1.54 336.61 M19.26 346.71 C13.79 339.27, 8.22 333.63, 1.9 331.62 M19.26 346.71 C15.14 343.31, 11.45 340.02, 1.9 331.62 M18.87 341.07 C15.22 338.57, 9.54 334.87, 1.51 325.98 M18.87 341.07 C13.93 337.34, 10.65 333.22, 1.51 325.98 M19.23 336.08 C10.98 329.65, 6.73 323.02, 1.87 320.99 M19.23 336.08 C13.23 329.38, 6.6 324.56, 1.87 320.99 M18.83 330.44 C11.9 324.9, 8.5 321.4, 1.47 315.35 M18.83 330.44 C15.15 327.39, 11.19 322.62, 1.47 315.35 M19.19 325.45 C14.94 320.81, 9.17 317.82, 1.83 310.36 M19.19 325.45 C15.28 321.71, 10.64 318.49, 1.83 310.36 M18.8 319.81 C14.41 317.82, 10.61 313.42, 1.44 304.72 M18.8 319.81 C16.06 316.41, 12.23 313.07, 1.44 304.72 M19.16 314.82 C17.03 311.73, 11.96 308.65, 1.8 299.73 M19.16 314.82 C14.81 310.38, 10.2 306.26, 1.8 299.73 M18.76 309.18 C13.03 304.14, 6.07 299.7, 1.4 294.09 M18.76 309.18 C15.12 306.07, 10.58 301.49, 1.4 294.09 M19.12 304.19 C13.27 298.93, 6.15 291.49, 1.76 289.1 M19.12 304.19 C14.2 299.81, 9.92 295.27, 1.76 289.1 M18.73 298.55 C16.6 296.64, 10.59 290.1, 1.37 283.46 M18.73 298.55 C12.94 294.92, 8.78 290.01, 1.37 283.46 M19.09 293.56 C13.28 286.23, 7.01 280.95, 1.73 278.47 M19.09 293.56 C15.54 290.06, 11.68 285.62, 1.73 278.47 M18.69 287.92 C15.12 286.28, 10.02 281.18, 1.34 272.83 M18.69 287.92 C13.41 283.3, 8.52 279.3, 1.34 272.83 M19.05 282.93 C12.04 277.93, 10.7 274.93, 1.7 267.84 M19.05 282.93 C14.49 277.85, 8.16 272.57, 1.7 267.84 M18.66 277.29 C17.2 274.67, 12.95 269.42, 2.06 262.86 M18.66 277.29 C14.07 273.91, 9.44 269.93, 2.06 262.86 M19.02 272.3 C12.02 265.22, 5.08 260.53, 1.66 257.21 M19.02 272.3 C13.32 268.56, 8.58 264.16, 1.66 257.21 M19.38 267.32 C15.75 263.48, 11.03 260.32, 2.02 252.23 M19.38 267.32 C15.11 263.53, 10.88 260.6, 2.02 252.23 M18.98 261.67 C14.72 258.55, 9.94 253.97, 1.63 246.58 M18.98 261.67 C13.94 257.2, 9.57 253.59, 1.63 246.58 M19.34 256.68 C14.38 251.76, 5.12 245.69, 1.99 241.6 M19.34 256.68 C14.01 252.14, 8.8 247.6, 1.99 241.6 M18.95 251.04 C13.86 248.21, 10.56 243.58, 1.59 235.95 M18.95 251.04 C12.99 245.1, 5.51 238.39, 1.59 235.95 M19.31 246.05 C16.41 241.54, 12.43 237.36, 1.95 230.97 M19.31 246.05 C14.45 242.56, 9.87 237.16, 1.95 230.97 M18.92 240.41 C11.54 235.06, 6.56 232.09, 1.56 225.32 M18.92 240.41 C12.95 235.27, 8.24 231.41, 1.56 225.32 M19.28 235.42 C14.69 230.87, 11.56 227.32, 1.92 220.34 M19.28 235.42 C12.97 229.18, 6.48 223.55, 1.92 220.34 M18.88 229.78 C11.41 223.18, 6.24 217.81, 1.52 214.69 M18.88 229.78 C12.91 225, 6.81 218.77, 1.52 214.69 M19.24 224.79 C12.37 219.65, 5.19 212.03, 1.88 209.71 M19.24 224.79 C14.91 220.98, 10.61 216.46, 1.88 209.71 M18.85 219.15 C14.6 216.91, 9.87 212.11, 1.49 204.06 M18.85 219.15 C13.21 213.92, 7.15 210.5, 1.49 204.06 M19.21 214.16 C12.16 210.43, 8.08 204.68, 1.85 199.08 M19.21 214.16 C12.98 208.97, 7.3 203.85, 1.85 199.08 M18.81 208.52 C13.9 203.04, 10.66 201.09, 1.45 193.43 M18.81 208.52 C14.04 204.3, 8.6 200.35, 1.45 193.43 M19.17 203.53 C12.59 199.55, 6.72 194.8, 1.81 188.45 M19.17 203.53 C16.12 200.78, 11.57 197.19, 1.81 188.45 M18.78 197.89 C13.39 193.33, 6 185.68, 1.42 182.8 M18.78 197.89 C12.41 192.73, 4.53 186.89, 1.42 182.8 M19.14 192.9 C12.28 186.96, 8.75 182.59, 1.78 177.82 M19.14 192.9 C12.37 187.38, 5.8 182.52, 1.78 177.82 M18.74 187.26 C11.85 184.08, 7.64 176.7, 1.38 172.17 M18.74 187.26 C13.39 183.14, 9.79 179.15, 1.38 172.17 M19.1 182.27 C13.2 176.46, 7.97 172.68, 1.74 167.18 M19.1 182.27 C11.74 175.69, 6.01 170.68, 1.74 167.18 M18.71 176.63 C13.98 168.78, 4.83 164.91, 1.35 161.54 M18.71 176.63 C13.53 171.41, 7.55 167.6, 1.35 161.54 M19.07 171.64 C17.11 167.44, 11.09 164.38, 1.71 156.55 M19.07 171.64 C14.82 167.7, 11.49 163.91, 1.71 156.55 M18.67 166 C13.45 160.06, 6.61 155.8, 2.07 151.57 M18.67 166 C14.57 162.91, 9.71 159.5, 2.07 151.57 M19.03 161.01 C13.6 157.44, 8.47 153.68, 1.68 145.92 M19.03 161.01 C14.22 157.24, 10.48 155.01, 1.68 145.92 M19.39 156.03 C10.87 151.52, 7.58 145.76, 2.04 140.94 M19.39 156.03 C13.15 149.66, 6.69 144.55, 2.04 140.94 M19 150.38 C12.17 144.97, 6.45 138.64, 1.64 135.29 M19 150.38 C14.18 145.61, 9.86 141.6, 1.64 135.29 M19.36 145.4 C14.42 142.69, 9.95 137.73, 2 130.31 M19.36 145.4 C14.37 142.08, 9.33 138, 2 130.31 M18.97 139.75 C13.02 134.03, 5.39 128.38, 1.61 124.66 M18.97 139.75 C16.17 136.97, 11.1 133.99, 1.61 124.66 M19.33 134.77 C12.18 127, 6.39 122.52, 1.97 119.68 M19.33 134.77 C13.42 128.75, 7.18 125.07, 1.97 119.68 M18.93 129.12 C12.13 123.22, 6.53 117.69, 1.57 114.03 M18.93 129.12 C15.1 126.24, 10.26 120.53, 1.57 114.03 M19.29 124.14 C12.36 121.46, 8.61 114.04, 1.93 109.05 M19.29 124.14 C13.1 120.21, 8.44 115.23, 1.93 109.05 M18.9 118.49 C11.12 114.98, 4.59 107.75, 1.54 103.4 M18.9 118.49 C14.38 114.88, 10.71 112.92, 1.54 103.4 M19.26 113.51 C14.08 106.48, 6.74 104.42, 1.9 98.42 M19.26 113.51 C14.29 109.23, 11.21 105.69, 1.9 98.42 M18.86 107.86 C12.8 103.01, 7.54 100.08, 1.5 92.77 M18.86 107.86 C11.66 101.44, 5.23 95.22, 1.5 92.77 M19.22 102.88 C17.14 99.17, 10.21 97.84, 1.86 87.79 M19.22 102.88 C14.69 99.27, 9.88 93.4, 1.86 87.79 M18.83 97.23 C13.03 92.51, 8.27 86.3, 1.47 82.14 M18.83 97.23 C13.42 93.04, 9.18 88.94, 1.47 82.14 M19.19 92.25 C12.43 85.05, 7.61 82.65, 1.83 77.16 M19.19 92.25 C14.9 86.44, 9.43 83.53, 1.83 77.16 M18.79 86.6 C11.21 81.95, 7.75 77.31, 1.43 71.51 M18.79 86.6 C14.95 83.87, 10.95 79.89, 1.43 71.51 M19.15 81.62 C14.19 76, 8.47 70.95, 1.79 66.53 M19.15 81.62 C14.81 77.15, 9.63 72.64, 1.79 66.53 M18.76 75.97 C14.04 72.68, 9.59 64.53, 1.4 60.88 M18.76 75.97 C12.77 70.29, 5.47 65.88, 1.4 60.88 M19.12 70.99 C16.33 69.01, 10.04 63.73, 1.76 55.9 M19.12 70.99 C11.99 64.15, 5.2 60.1, 1.76 55.9 M18.72 65.34 C12 62.88, 10.29 55.23, 1.37 50.25 M18.72 65.34 C13.1 59.86, 7.92 56.26, 1.37 50.25 M19.08 60.36 C14.24 53.64, 6.72 51.86, 1.73 45.27 M19.08 60.36 C12.04 54.83, 6.78 50.07, 1.73 45.27 M18.69 54.71 C12.07 50.7, 6.15 46.22, 1.33 39.62 M18.69 54.71 C13.48 50.22, 8.25 46.21, 1.33 39.62 M19.05 49.73 C11.74 45.72, 6.79 39.35, 1.69 34.64 M19.05 49.73 C13.87 45.9, 8.11 41.52, 1.69 34.64 M18.65 44.08 C12.11 37.97, 9.21 36.32, 2.05 29.65 M18.65 44.08 C11.62 39.11, 6.41 33.59, 2.05 29.65 M19.01 39.1 C12.09 31.27, 6.68 27.66, 1.66 24.01 M19.01 39.1 C13.13 34.68, 6.7 28.09, 1.66 24.01 M19.37 34.11 C13.67 29.61, 9.49 24.11, 2.02 19.02 M19.37 34.11 C11.85 28.44, 5.19 21.25, 2.02 19.02 M18.98 28.47 C14.06 25.19, 7.78 18, 1.62 13.38 M18.98 28.47 C12.13 22.24, 6.85 17.76, 1.62 13.38 M19.34 23.48 C13.57 20.05, 10.91 18.05, 1.98 8.39 M19.34 23.48 C14.84 19.09, 7.55 13.79, 1.98 8.39 M18.95 17.84 C12.69 14.58, 8.99 8.07, 1.59 2.75 M18.95 17.84 C14.24 14.55, 10.94 11.44, 1.59 2.75 M19.31 12.85 C17.67 11.44, 13.19 7.43, 4.21 -0.27 M19.31 12.85 C14.7 8.88, 11.66 6.03, 4.21 -0.27 M18.91 7.21 C16.92 5.11, 14.6 2.6, 10.61 -0.01 M18.91 7.21 C15.63 4.14, 12.15 1.81, 10.61 -0.01" stroke="#a5d8ff" stroke-width="0.5" fill="none"></path><path d="M4.14 0 C7.06 0.01, 9.06 0.6, 12.43 0 M4.14 0 C5.73 -0.33, 7.47 -0.25, 12.43 0 M12.43 0 C17.19 1.66, 17.93 0.77, 16.58 4.14 M12.43 0 C14.82 0.6, 15.5 2.22, 16.58 4.14 M16.58 4.14 C15.85 91.66, 15.07 180.39, 16.58 370.51 M16.58 4.14 C14.7 115.98, 15.15 227.67, 16.58 370.51 M16.58 370.51 C16.85 371.34, 13.6 376.17, 12.43 374.66 M16.58 370.51 C18.72 373.43, 13.73 376.19, 12.43 374.66 M12.43 374.66 C9.85 375.32, 8 374.63, 4.14 374.66 M12.43 374.66 C9.34 374.36, 7.03 374.45, 4.14 374.66 M4.14 374.66 C2.33 375.07, -0.03 371.74, 0 370.51 M4.14 374.66 C-0.81 376.9, 0.09 371.35, 0 370.51 M0 370.51 C2.12 294.84, 0.62 219.63, 0 4.14 M0 370.51 C-1.48 277.91, -2.3 185.35, 0 4.14 M0 4.14 C-1.38 0.37, 1.42 -0.9, 4.14 0 M0 4.14 C1.5 0.07, 2.03 0.04, 4.14 0" stroke="#1e1e1e" stroke-width="1" fill="none"></path></g><g stroke-linecap="round" transform="translate(1258.451517145304 1617.5290954940342) rotate(0 7.874416791674548 18.64990851417525)"><path d="M3.94 0 C5.49 0.66, 7.37 -0.96, 11.81 0 C16.71 1.83, 16.93 -0.99, 15.75 3.94 C13.13 15.55, 17.28 19.77, 15.75 33.36 C18.11 34.56, 17.04 34.21, 11.81 37.3 C10.85 38.48, 9.1 38.6, 3.94 37.3 C0.75 39.82, 1.74 36.33, 0 33.36 C2.84 24.61, -0.31 15.58, 0 3.94 C-2.24 2.52, 2.67 -0.66, 3.94 0" stroke="none" stroke-width="0" fill="#a5d8ff"></path><path d="M3.94 0 C5.72 -0.73, 8.55 -0.25, 11.81 0 M3.94 0 C6.13 -0.15, 7.94 -0.3, 11.81 0 M11.81 0 C12.84 -0.32, 15.58 -0.37, 15.75 3.94 M11.81 0 C16.37 1.47, 17.16 -0.47, 15.75 3.94 M15.75 3.94 C14.16 10.83, 16.19 20.02, 15.75 33.36 M15.75 3.94 C14.84 10.85, 16.22 17.99, 15.75 33.36 M15.75 33.36 C17.39 35.29, 14.32 36.17, 11.81 37.3 M15.75 33.36 C16.19 36.98, 13.66 38.36, 11.81 37.3 M11.81 37.3 C10.57 37.14, 8.05 37.06, 3.94 37.3 M11.81 37.3 C9.63 36.89, 6.96 37.33, 3.94 37.3 M3.94 37.3 C0.58 36.99, 0.17 37.92, 0 33.36 M3.94 37.3 C2.34 37.14, 1.42 37.39, 0 33.36 M0 33.36 C-0.04 27.67, -0.09 17.41, 0 3.94 M0 33.36 C-0.65 23.62, -1.02 15.9, 0 3.94 M0 3.94 C-1.82 1.63, 1.75 -0.88, 3.94 0 M0 3.94 C1.56 3.02, 0.22 -0.48, 3.94 0" stroke="#1e1e1e" stroke-width="1" fill="none"></path></g><g transform="translate(578.7665895252378 1663.9466393025716) rotate(0 23.97997283935547 12.5)"><text x="0" y="17.52" font-family="Virgil, Segoe UI Emoji" font-size="20px" fill="#1e1e1e" text-anchor="start" style="white-space: pre;" direction="ltr" dominant-baseline="alphabetic">Title</text></g><g transform="translate(579.595452398933 1691.2998039651634) rotate(0 25.149978637695312 12.5)"><text x="0" y="17.52" font-family="Virgil, Segoe UI Emoji" font-size="20px" fill="#1e1e1e" text-anchor="start" style="white-space: pre;" direction="ltr" dominant-baseline="alphabetic">Tags</text></g><a href="Notable/Notes/{NoteID}"><g stroke-linecap="round" transform="translate(10 1610.7058381557777) rotate(0 176.754210884064 192.55350752065294)"><path d="M32 0 C130.94 -0.91, 226.69 -0.52, 321.51 0 M32 0 C140.67 2.23, 248.85 1.45, 321.51 0 M321.51 0 C344.68 0.01, 352.07 11.32, 353.51 32 M321.51 0 C343.14 -1.74, 352.06 8.54, 353.51 32 M353.51 32 C353.27 158.41, 352.62 283.58, 353.51 353.11 M353.51 32 C353.26 125.12, 353.28 218.52, 353.51 353.11 M353.51 353.11 C352.86 375.77, 341.32 383.35, 321.51 385.11 M353.51 353.11 C351.86 372.48, 343.43 386.05, 321.51 385.11 M321.51 385.11 C261.86 384.42, 199.89 383.01, 32 385.11 M321.51 385.11 C230.11 386.61, 139.23 386.58, 32 385.11 M32 385.11 C11.31 386.13, 0.96 374.2, 0 353.11 M32 385.11 C10.48 385.77, -0.47 372.35, 0 353.11 M0 353.11 C-0.85 282.34, -1.21 210.19, 0 32 M0 353.11 C0.75 245.32, -0.1 137.1, 0 32 M0 32 C0.8 10.24, 8.72 0.28, 32 0 M0 32 C-1.7 11.3, 10.94 1.32, 32 0" stroke="#1e1e1e" stroke-width="1" fill="none"></path></g></a><g transform="translate(21.074941547196886 1578.8823536001055) rotate(0 25.75647735595703 13.94312530194378)"><text x="0" y="19.54268442320442" font-family="Virgil, Segoe UI Emoji" font-size="22.309000483110065px" fill="#1e1e1e" text-anchor="start" style="white-space: pre;" direction="ltr" dominant-baseline="alphabetic">Note</text></g><g transform="translate(35.51660836188398 1632.6911752844394) rotate(0 21.71387481689453 11.31958400366284)"><text x="0" y="15.865528939533803" font-family="Virgil, Segoe UI Emoji" font-size="18.111334405860507px" fill="#1e1e1e" text-anchor="start" style="white-space: pre;" direction="ltr" dominant-baseline="alphabetic">Title</text></g><g transform="translate(33.6270480853409 1662.923210493356) rotate(0 22.7733154296875 11.31958400366284)"><text x="0" y="15.865528939533803" font-family="Virgil, Segoe UI Emoji" font-size="18.111334405860507px" fill="#1e1e1e" text-anchor="start" style="white-space: pre;" direction="ltr" dominant-baseline="alphabetic">Tags</text></g><g transform="translate(39.295585958697416 1737.5585719859782) rotate(0 34.49047088623047 11.31958400366284)"><text x="0" y="15.865528939533803" font-family="Virgil, Segoe UI Emoji" font-size="18.111334405860507px" fill="#1e1e1e" text-anchor="start" style="white-space: pre;" direction="ltr" dominant-baseline="alphabetic">Content</text></g><g transform="translate(36.46140636968971 1701.657998903705) rotate(0 60.23381042480469 11.31958400366284)"><text x="0" y="15.865528939533803" font-family="Virgil, Segoe UI Emoji" font-size="18.111334405860507px" fill="#1e1e1e" text-anchor="start" style="white-space: pre;" direction="ltr" dominant-baseline="alphabetic">CreationDate</text></g><g stroke-linecap="round" transform="translate(194.0228880475397 1944.2623541059138) rotate(0 35.150423991615185 20.714468923429934)"><path d="M10.36 0 C28.07 1.46, 45.24 -0.14, 59.94 0 M10.36 0 C30.54 0.47, 49.78 -0.76, 59.94 0 M59.94 0 C65.74 0.06, 69.46 1.59, 70.3 10.36 M59.94 0 C65.74 -0.82, 72.42 5.74, 70.3 10.36 M70.3 10.36 C69.36 18.68, 70.41 23.76, 70.3 31.07 M70.3 10.36 C69.4 16.08, 70.08 22.5, 70.3 31.07 M70.3 31.07 C68.95 39.12, 67.74 43.32, 59.94 41.43 M70.3 31.07 C71.17 37.01, 64.99 42.99, 59.94 41.43 M59.94 41.43 C40.89 39.52, 23.38 39.25, 10.36 41.43 M59.94 41.43 C41.23 41.4, 22.39 41.66, 10.36 41.43 M10.36 41.43 C4.88 41.49, 0.73 39.15, 0 31.07 M10.36 41.43 C3.48 42.37, 1.09 37.54, 0 31.07 M0 31.07 C1.63 21.96, -0.9 15.51, 0 10.36 M0 31.07 C-0.24 24.62, 0.51 19.41, 0 10.36 M0 10.36 C-1.95 2.91, 4.65 1.89, 10.36 0 M0 10.36 C0.72 4.46, 1.33 1.77, 10.36 0" stroke="#1e1e1e" stroke-width="1" fill="none"></path></g><g transform="translate(210.1733349273385 1952.4768230293434) rotate(0 18.999977111816406 12.5)"><text x="18.999977111816406" y="17.52" font-family="Virgil, Segoe UI Emoji" font-size="20px" fill="#1e1e1e" text-anchor="middle" style="white-space: pre;" direction="ltr" dominant-baseline="alphabetic">edit</text></g><g stroke-linecap="round" transform="translate(273.64971369373393 1942.1067577495498) rotate(0 36.654760659912284 21.994507090642173)"><path d="M11 0 C24.82 0.53, 34.03 -1.84, 62.31 0 M11 0 C29.06 0.41, 47.98 1.14, 62.31 0 M62.31 0 C67.87 1.58, 71.63 3.74, 73.31 11 M62.31 0 C69.86 -0.11, 73.44 4.16, 73.31 11 M73.31 11 C74.49 19.19, 74.14 28.29, 73.31 32.99 M73.31 11 C73.14 18.02, 72.45 22.94, 73.31 32.99 M73.31 32.99 C72.13 40.17, 69.86 44.22, 62.31 43.99 M73.31 32.99 C72.8 39.41, 70.86 45.02, 62.31 43.99 M62.31 43.99 C53.8 44.92, 42.38 42.45, 11 43.99 M62.31 43.99 C43.14 44.44, 23.99 43.2, 11 43.99 M11 43.99 C4.74 42.05, -1.59 42.13, 0 32.99 M11 43.99 C4.34 45.79, 0.51 40.96, 0 32.99 M0 32.99 C0.67 25.77, 0.45 18.62, 0 11 M0 32.99 C-0.66 25.85, 0.39 18.86, 0 11 M0 11 C1.5 3.3, 2.91 -0.66, 11 0 M0 11 C1.16 3.77, 2.47 0.6, 11 0" stroke="#1e1e1e" stroke-width="1" fill="none"></path></g><g transform="translate(279.9245076178064 1951.601264840192) rotate(0 30.379966735839844 12.5)"><text x="30.379966735839844" y="17.52" font-family="Virgil, Segoe UI Emoji" font-size="20px" fill="#1e1e1e" text-anchor="middle" style="white-space: pre;" direction="ltr" dominant-baseline="alphabetic">delete</text></g><g mask="url(#mask-WCrUVof_vn845REZCmg04)" stroke-linecap="round"><g transform="translate(552.8108881686172 1753.282023223161) rotate(0 -92.91515476884524 26.98729294185614)"><path d="M1.18 0.17 C-30.08 9.28, -155.25 45.73, -186.38 54.63 M0.33 -0.78 C-31.23 7.98, -156.51 43.6, -187.62 52.85" stroke="#1e1e1e" stroke-width="1" fill="none"></path></g><g transform="translate(552.8108881686172 1753.282023223161) rotate(0 -92.91515476884524 26.98729294185614)"><path d="M-167.43 38.1 C-175.17 43.24, -182.4 50.36, -187.62 52.85 M-167.43 38.1 C-173.26 42.55, -178.42 46.6, -187.62 52.85" stroke="#1e1e1e" stroke-width="1" fill="none"></path></g><g transform="translate(552.8108881686172 1753.282023223161) rotate(0 -92.91515476884524 26.98729294185614)"><path d="M-162.68 54.53 C-172.3 53.19, -181.42 53.77, -187.62 52.85 M-162.68 54.53 C-169.63 54.59, -176.07 54.23, -187.62 52.85" stroke="#1e1e1e" stroke-width="1" fill="none"></path></g></g><mask id="mask-WCrUVof_vn845REZCmg04"><rect x="0" y="0" fill="#fff" width="838.6411977063077" height="1907.2566091068734"></rect><rect x="438.7457547620767" y="1767.769316165017" fill="#000" width="42.299957275390625" height="25" opacity="1"></rect></mask><g transform="translate(438.7457547620767 1767.769316165017) rotate(0 20.843090751571566 12.436810804950085)"><text x="21.149978637695312" y="17.52" font-family="Virgil, Segoe UI Emoji" font-size="20px" fill="#1e1e1e" text-anchor="middle" style="white-space: pre;" direction="ltr" dominant-baseline="alphabetic">Click</text></g><g mask="url(#mask-MuIIzEtIf1cLwXJkxXKzx)" stroke-linecap="round"><g transform="translate(1682.579008825915 806.6858639804962) rotate(0 -357.7214599977593 316.44960539607166)"><path d="M-0.85 0.57 C-88.3 -9.71, -406.77 -176.03, -525.8 -60.61 C-644.83 54.81, -683.49 567.56, -715.03 693.1 M0.91 -0.18 C-86.05 -10.32, -403.99 -178.33, -523.41 -62.62 C-642.82 53.09, -683.72 568.14, -715.57 694.09" stroke="#1e1e1e" stroke-width="1" fill="none"></path></g><g transform="translate(1682.579008825915 806.6858639804962) rotate(0 -357.7214599977593 316.44960539607166)"><path d="M-720.13 669.51 C-718.01 673.67, -717.66 680.48, -715.57 694.09 M-720.13 669.51 C-719.84 674.79, -718.68 682.73, -715.57 694.09" stroke="#1e1e1e" stroke-width="1" fill="none"></path></g><g transform="translate(1682.579008825915 806.6858639804962) rotate(0 -357.7214599977593 316.44960539607166)"><path d="M-703.26 672.33 C-704.69 675.78, -707.85 682.01, -715.57 694.09 M-703.26 672.33 C-707.17 676.75, -710.2 684, -715.57 694.09" stroke="#1e1e1e" stroke-width="1" fill="none"></path></g></g><mask id="mask-MuIIzEtIf1cLwXJkxXKzx"><rect x="0" y="0" fill="#fff" width="2498.021928821434" height="1661.2234567476316"></rect><rect x="1136.2212789558723" y="733.3666729930001" fill="#000" width="42.299957275390625" height="25" opacity="1"></rect></mask><g transform="translate(1136.221278955872 733.3666729930001) rotate(0 189.0244042742084 368.80635907854423)"><text x="21.149978637695312" y="17.52" font-family="Virgil, Segoe UI Emoji" font-size="20px" fill="#1e1e1e" text-anchor="middle" style="white-space: pre;" direction="ltr" dominant-baseline="alphabetic">Click</text></g><g stroke-linecap="round" transform="translate(1784.1779687899161 813.6148479430944) rotate(0 63.947975474092004 24.545672869858095)"><path d="M12.27 0 C50.42 1.39, 87.35 1.29, 115.62 0 M12.27 0 C37.74 -0.24, 62.85 -0.03, 115.62 0 M115.62 0 C122.05 0.14, 125.98 3.62, 127.9 12.27 M115.62 0 C124.83 -1.51, 127.94 4.35, 127.9 12.27 M127.9 12.27 C126.99 22.08, 128 28.08, 127.9 36.82 M127.9 12.27 C128.53 16.86, 127.16 23.19, 127.9 36.82 M127.9 36.82 C129.58 44.25, 121.81 50.82, 115.62 49.09 M127.9 36.82 C125.78 45.74, 125.2 50.99, 115.62 49.09 M115.62 49.09 C80.97 50.14, 48.16 49.51, 12.27 49.09 M115.62 49.09 C83.2 48.55, 49.79 49.85, 12.27 49.09 M12.27 49.09 C4.87 48.38, 0.11 44.8, 0 36.82 M12.27 49.09 C1.94 47.18, 0.3 47.21, 0 36.82 M0 36.82 C1.75 32.65, 1.8 25.6, 0 12.27 M0 36.82 C0.75 32.3, 0.13 26.28, 0 12.27 M0 12.27 C1.66 5.24, 4.22 -2, 12.27 0 M0 12.27 C-0.38 2.78, 2.66 0.45, 12.27 0" stroke="#1e1e1e" stroke-width="1" fill="none"></path></g><g transform="translate(1814.7159787488715 825.6605208129527) rotate(0 33.409965515136776 12.5)"><text x="33.40996551513672" y="17.52" font-family="Virgil, Segoe UI Emoji" font-size="20px" fill="#1e1e1e" text-anchor="middle" style="white-space: pre;" direction="ltr" dominant-baseline="alphabetic">Logout</text></g><g stroke-linecap="round" transform="translate(815.9526847320229 104.82149883415241) rotate(0 232.69544051728667 181.51031624670503)"><path d="M32 0 C148.82 2.4, 267.53 1.77, 433.39 0 M32 0 C163.55 0.62, 294.12 0.79, 433.39 0 M433.39 0 C454.7 0.18, 465.03 10.92, 465.39 32 M433.39 0 C455.47 2.07, 465.34 9.41, 465.39 32 M465.39 32 C465.48 96.71, 465.15 164.16, 465.39 331.02 M465.39 32 C464.14 101.92, 464.35 171.56, 465.39 331.02 M465.39 331.02 C465.03 353.38, 454.06 361.06, 433.39 363.02 M465.39 331.02 C467.58 351.36, 454.75 363.54, 433.39 363.02 M433.39 363.02 C330.41 362.42, 224.48 362.43, 32 363.02 M433.39 363.02 C332.48 361.6, 230.93 361.61, 32 363.02 M32 363.02 C9.68 363.02, -1.12 352.59, 0 331.02 M32 363.02 C12.56 364.46, 0 354.59, 0 331.02 M0 331.02 C0.56 264.23, -1.21 199.17, 0 32 M0 331.02 C-0.55 245.18, -0.8 158.14, 0 32 M0 32 C0.14 9.99, 9.56 0.01, 32 0 M0 32 C0.57 12.79, 10.64 1.35, 32 0" stroke="#1e1e1e" stroke-width="1" fill="none"></path></g><g transform="translate(895.4864590711994 226.87835998506011) rotate(0 47.89996337890625 12.5)"><text x="0" y="17.52" font-family="Virgil, Segoe UI Emoji" font-size="20px" fill="#1e1e1e" text-anchor="start" style="white-space: pre;" direction="ltr" dominant-baseline="alphabetic">Username:</text></g><g transform="translate(899.4237339307105 270.18886006406046) rotate(0 48.179954528808594 12.5)"><text x="0" y="17.52" font-family="Virgil, Segoe UI Emoji" font-size="20px" fill="#1e1e1e" text-anchor="start" style="white-space: pre;" direction="ltr" dominant-baseline="alphabetic">Password:</text></g><g stroke-linecap="round" transform="translate(1004.9440227982587 226.0908871397438) rotate(0 88.58966737677986 14.568083798723478)"><path d="M7.28 0 C56.42 -1.6, 106.31 -2.37, 169.9 0 M7.28 0 C59.06 0.38, 110.09 0.09, 169.9 0 M169.9 0 C176.42 -1.56, 178.23 2.34, 177.18 7.28 M169.9 0 C175.5 1.97, 179.22 3.23, 177.18 7.28 M177.18 7.28 C176.69 12.81, 177.55 17.41, 177.18 21.85 M177.18 7.28 C177.46 11.56, 177.14 16.22, 177.18 21.85 M177.18 21.85 C175.91 25.93, 175.67 27.44, 169.9 29.14 M177.18 21.85 C178.6 26.3, 175.63 28.14, 169.9 29.14 M169.9 29.14 C123.81 30.93, 79.13 29.13, 7.28 29.14 M169.9 29.14 C132.92 29.11, 97.22 29.2, 7.28 29.14 M7.28 29.14 C3.36 29.28, -0.39 28.17, 0 21.85 M7.28 29.14 C1.85 30.78, -0.26 28.52, 0 21.85 M0 21.85 C0.37 18.7, 0.87 12.69, 0 7.28 M0 21.85 C-0.2 17.34, -0.06 12.82, 0 7.28 M0 7.28 C1.06 3.05, 2.49 1.24, 7.28 0 M0 7.28 C-0.05 1.08, 0.52 1.52, 7.28 0" stroke="#1e1e1e" stroke-width="1" fill="none"></path></g><g stroke-linecap="round" transform="translate(1004.9438440641155 268.6139143734275) rotate(0 89.77086175024272 14.961820221381743)"><path d="M7.48 0 C47.97 1.02, 90.11 -0.25, 172.06 0 M7.48 0 C66.85 -0.84, 127.49 0.41, 172.06 0 M172.06 0 C176.43 -1.79, 179.61 1.92, 179.54 7.48 M172.06 0 C176.91 2.29, 181.43 2.54, 179.54 7.48 M179.54 7.48 C180.82 13.07, 178.7 16.89, 179.54 22.44 M179.54 7.48 C179.26 12.71, 179.53 17.78, 179.54 22.44 M179.54 22.44 C178.28 27.02, 175.62 31.74, 172.06 29.92 M179.54 22.44 C181.57 29.63, 177.11 32.15, 172.06 29.92 M172.06 29.92 C124.88 31.56, 81.22 29.99, 7.48 29.92 M172.06 29.92 C117.73 29.51, 65.07 30.7, 7.48 29.92 M7.48 29.92 C3.63 31.63, 1.4 25.7, 0 22.44 M7.48 29.92 C1.13 31.42, 0.39 26.74, 0 22.44 M0 22.44 C0.4 17.92, 0.23 12.24, 0 7.48 M0 22.44 C0.55 18.12, -0.67 14.06, 0 7.48 M0 7.48 C-0.27 3.55, 2.48 -0.43, 7.48 0 M0 7.48 C0.2 3.35, 1.11 0.49, 7.48 0" stroke="#1e1e1e" stroke-width="1" fill="none"></path></g><g stroke-linecap="round" transform="translate(878.949678264673 336.80611170357133) rotate(0 77.56519648746848 36.61704047185805)"><path d="M18.31 0 C42.32 0.97, 69.65 0.97, 136.82 0 M18.31 0 C49.84 -0.31, 80.68 -1.79, 136.82 0 M136.82 0 C148.28 -0.92, 155.28 5.99, 155.13 18.31 M136.82 0 C148.29 -1.32, 155.44 5.34, 155.13 18.31 M155.13 18.31 C153.66 31.16, 154.16 46.41, 155.13 54.93 M155.13 18.31 C155.22 28.7, 155.35 40.1, 155.13 54.93 M155.13 54.93 C153.62 68.65, 150.05 72.45, 136.82 73.23 M155.13 54.93 C155.89 68.74, 149.94 74.59, 136.82 73.23 M136.82 73.23 C101.4 71.49, 62.71 74.56, 18.31 73.23 M136.82 73.23 C95.48 72.72, 54.87 72.37, 18.31 73.23 M18.31 73.23 C7.76 72.95, -1.23 68.49, 0 54.93 M18.31 73.23 C7.46 71.32, -1.17 69.17, 0 54.93 M0 54.93 C0.15 45.88, -0.36 33.99, 0 18.31 M0 54.93 C1.32 47.54, 0.62 40.2, 0 18.31 M0 18.31 C0.3 4.1, 4.39 -0.74, 18.31 0 M0 18.31 C-1.41 6.8, 5.19 1.74, 18.31 0" stroke="#1e1e1e" stroke-width="1" fill="none"></path></g><g transform="translate(933.1148961144462 360.92315217542944) rotate(0 23.399978637695312 12.5)"><text x="23.399978637695312" y="17.52" font-family="Virgil, Segoe UI Emoji" font-size="20px" fill="#1e1e1e" text-anchor="middle" style="white-space: pre;" direction="ltr" dominant-baseline="alphabetic">Login</text></g><g stroke-linecap="round" transform="translate(1064.7911249496424 339.1685004504968) rotate(0 72.44669746547106 34.2546517249325)"><path d="M17.13 0 C45.45 1.18, 73.84 -0.16, 127.77 0 M17.13 0 C45.49 0.17, 74.1 -0.45, 127.77 0 M127.77 0 C140.4 -1.45, 146.76 5.1, 144.89 17.13 M127.77 0 C139.39 -0.97, 145.09 4.47, 144.89 17.13 M144.89 17.13 C145.69 25.54, 146.17 33.87, 144.89 51.38 M144.89 17.13 C145.75 29.02, 144.54 41.16, 144.89 51.38 M144.89 51.38 C143.51 63.38, 140.03 68.7, 127.77 68.51 M144.89 51.38 C143.03 61.92, 138.48 67.86, 127.77 68.51 M127.77 68.51 C91.6 67.02, 59.88 69.16, 17.13 68.51 M127.77 68.51 C97.42 68.78, 68.59 68.4, 17.13 68.51 M17.13 68.51 C4.77 69.75, -1.7 64.74, 0 51.38 M17.13 68.51 C5.45 67.25, -2.13 64.12, 0 51.38 M0 51.38 C1.83 39.6, 1.46 25.94, 0 17.13 M0 51.38 C0.45 42.61, 1.22 34.18, 0 17.13 M0 17.13 C1.43 7.38, 6.33 -1.16, 17.13 0 M0 17.13 C1.99 6.77, 3.63 1.09, 17.13 0" stroke="#1e1e1e" stroke-width="1" fill="none"></path></g><g transform="translate(1096.9378651397228 360.9231521754293) rotate(0 40.299957275390625 12.5)"><text x="40.299957275390625" y="17.52" font-family="Virgil, Segoe UI Emoji" font-size="20px" fill="#1e1e1e" text-anchor="middle" style="white-space: pre;" direction="ltr" dominant-baseline="alphabetic">Register</text></g><g transform="translate(871.8625120238961 136.7903325370487) rotate(0 172.60629272460938 22.343306304872385)"><text x="0" y="31.316378116909142" font-family="Virgil, Segoe UI Emoji" font-size="35.74929008779582px" fill="#1e1e1e" text-anchor="start" style="white-space: pre;" direction="ltr" dominant-baseline="alphabetic">Welcome to Notable</text></g><g mask="url(#mask-usqsAA3qBL2it9RtKxf2E)" stroke-linecap="round"><g transform="translate(1144.648978917815 418.75400969487555) rotate(0 294.2652635473021 182.21071786118836)"><path d="M0.98 -0.97 C77.34 16.6, 360.93 44.57, 458.77 105.67 C556.61 166.77, 566.56 322.65, 588.01 365.61 M0.03 1.13 C76.7 18.32, 363.05 43.31, 460.88 103.77 C558.7 164.24, 565.92 320.52, 586.98 363.89" stroke="#1e1e1e" stroke-width="1" fill="none"></path></g><g transform="translate(1144.648978917815 418.75400969487555) rotate(0 294.2652635473021 182.21071786118836)"><path d="M572.37 343.61 C575.87 348.63, 583.29 356.73, 586.98 363.89 M572.37 343.61 C577.3 351.75, 583.54 360.15, 586.98 363.89" stroke="#1e1e1e" stroke-width="1" fill="none"></path></g><g transform="translate(1144.648978917815 418.75400969487555) rotate(0 294.2652635473021 182.21071786118836)"><path d="M588.83 338.96 C586.61 345.74, 588.31 355.45, 586.98 363.89 M588.83 338.96 C587.15 348.82, 586.82 359.08, 586.98 363.89" stroke="#1e1e1e" stroke-width="1" fill="none"></path></g></g><mask id="mask-usqsAA3qBL2it9RtKxf2E"><rect x="0" y="0" fill="#fff" width="1833.179506012419" height="883.1754454172523"></rect><rect x="1583.410578731684" y="511.4880099357939" fill="#000" width="42.299957275390625" height="25" opacity="1"></rect></mask><g transform="translate(1583.4105787316837 511.48800993579397) rotate(0 -144.74021578080107 89.58642554462111)"><text x="21.149978637695312" y="17.52" font-family="Virgil, Segoe UI Emoji" font-size="20px" fill="#1e1e1e" text-anchor="middle" style="white-space: pre;" direction="ltr" dominant-baseline="alphabetic">Click</text></g><g mask="url(#mask-ro3XplQZwMvbyBEA2H5tr)" stroke-linecap="round"><g transform="translate(953.6686934594396 418.75400969487555) rotate(0 364.4215094428606 185.13388248675597)"><path d="M0.56 -0.18 C79.81 28.71, 353.31 110.7, 474.64 172.49 C595.97 234.28, 686.34 337.71, 728.54 370.57 M-0.6 -1.33 C79.1 27.33, 355.53 108.66, 476.89 170.89 C598.26 233.12, 685.84 338.79, 727.61 372.04" stroke="#1e1e1e" stroke-width="1" fill="none"></path></g><g transform="translate(953.6686934594396 418.75400969487555) rotate(0 364.4215094428606 185.13388248675597)"><path d="M704.61 362.26 C709.51 362.96, 716.76 366.14, 727.61 372.04 M704.61 362.26 C712.1 366.22, 719.11 367.77, 727.61 372.04" stroke="#1e1e1e" stroke-width="1" fill="none"></path></g><g transform="translate(953.6686934594396 418.75400969487555) rotate(0 364.4215094428606 185.13388248675597)"><path d="M716.28 349.76 C718.41 353.38, 722.98 359.43, 727.61 372.04 M716.28 349.76 C719.87 357.72, 723.09 363.34, 727.61 372.04" stroke="#1e1e1e" stroke-width="1" fill="none"></path></g></g><mask id="mask-ro3XplQZwMvbyBEA2H5tr"><rect x="0" y="0" fill="#fff" width="1782.511712345161" height="889.0217746683875"></rect><rect x="1408.0205537566583" y="577.7463958285795" fill="#000" width="42.299957275390625" height="25" opacity="1"></rect></mask><g transform="translate(1408.0205537566585 577.7463958285795) rotate(0 -90.38089409684619 26.366271257712896)"><text x="21.149978637695312" y="17.52" font-family="Virgil, Segoe UI Emoji" font-size="20px" fill="#1e1e1e" text-anchor="middle" style="white-space: pre;" direction="ltr" dominant-baseline="alphabetic">Click</text></g><a href="Notable/Notes/NewNote"><g stroke-linecap="round" transform="translate(13.31852179613179 1190.686643225115) rotate(0 168.959080642389 151.63748619625392)"><path d="M32 0 C104.22 -2.31, 172.4 -1.26, 305.92 0 M32 0 C128.34 -1.48, 224.83 -1.79, 305.92 0 M305.92 0 C327.92 -0.74, 337.01 10.82, 337.92 32 M305.92 0 C326.03 -1.05, 337.74 12.06, 337.92 32 M337.92 32 C338.15 84.9, 338.53 135.92, 337.92 271.27 M337.92 32 C338.56 113.21, 338.8 193.04, 337.92 271.27 M337.92 271.27 C338.25 290.76, 327.02 302.19, 305.92 303.27 M337.92 271.27 C339.81 294.26, 329.14 305.11, 305.92 303.27 M305.92 303.27 C232.91 303.02, 161.88 302.49, 32 303.27 M305.92 303.27 C210.4 301.59, 114.2 302.78, 32 303.27 M32 303.27 C8.69 304.88, 0.2 293.09, 0 271.27 M32 303.27 C12.68 303.83, 0.82 291.38, 0 271.27 M0 271.27 C1.88 201.37, 2.64 131.02, 0 32 M0 271.27 C-0.29 217.51, 0.18 164.26, 0 32 M0 32 C-1.77 9.93, 11.9 0.62, 32 0 M0 32 C-0.07 12.62, 9.55 2.25, 32 0" stroke="#1e1e1e" stroke-width="1" fill="none"></path></g></a><g transform="translate(22.44466235278901 1156.9143208186615) rotate(0 51.401458740234375 13.943125301943795)"><text x="0" y="19.54268442320442" font-family="Virgil, Segoe UI Emoji" font-size="22.309000483110065px" fill="#1e1e1e" text-anchor="start" style="white-space: pre;" direction="ltr" dominant-baseline="alphabetic">New Note</text></g><g transform="translate(36.886329167476106 1210.7231425029952) rotate(0 21.71387481689453 11.319584003662811)"><text x="0" y="15.865528939533803" font-family="Virgil, Segoe UI Emoji" font-size="18.111334405860507px" fill="#1e1e1e" text-anchor="start" style="white-space: pre;" direction="ltr" dominant-baseline="alphabetic">Title</text></g><g transform="translate(34.996768890933026 1240.955177711912) rotate(0 22.7733154296875 11.319584003662811)"><text x="0" y="15.865528939533803" font-family="Virgil, Segoe UI Emoji" font-size="18.111334405860507px" fill="#1e1e1e" text-anchor="start" style="white-space: pre;" direction="ltr" dominant-baseline="alphabetic">Tags</text></g><g transform="translate(32.87010280213053 1276.615035437127) rotate(0 34.49047088623047 11.319584003662811)"><text x="0" y="15.865528939533803" font-family="Virgil, Segoe UI Emoji" font-size="18.111334405860507px" fill="#1e1e1e" text-anchor="start" style="white-space: pre;" direction="ltr" dominant-baseline="alphabetic">Content</text></g><g stroke-linecap="round" transform="translate(185.41406296913487 1445.3091699830313) rotate(0 33.60023669087553 19.80092925533583)"><path d="M9.9 0 C18.74 -1.06, 29.2 -1.22, 57.3 0 M9.9 0 C21.13 -0.7, 34.3 0.35, 57.3 0 M57.3 0 C65.11 1.72, 67.36 4.05, 67.2 9.9 M57.3 0 C65.58 -1.31, 64.96 4.42, 67.2 9.9 M67.2 9.9 C65.23 14.24, 65.99 20.66, 67.2 29.7 M67.2 9.9 C66.99 16.69, 67.62 23.83, 67.2 29.7 M67.2 29.7 C66.16 35.67, 62.18 40.59, 57.3 39.6 M67.2 29.7 C68.63 34.94, 64.39 38.34, 57.3 39.6 M57.3 39.6 C46.79 39.33, 33.55 40.88, 9.9 39.6 M57.3 39.6 C41.87 38.74, 26.32 39.75, 9.9 39.6 M9.9 39.6 C3.51 41.32, -0.12 34.77, 0 29.7 M9.9 39.6 C3.6 37.71, -0.08 35.41, 0 29.7 M0 29.7 C-0.7 23.94, 0.64 15.66, 0 9.9 M0 29.7 C-0.47 21.35, -0.76 14.66, 0 9.9 M0 9.9 C-0.64 3.98, 1.66 -1.39, 9.9 0 M0 9.9 C-1.84 3.25, 3.68 -1.07, 9.9 0" stroke="#1e1e1e" stroke-width="1" fill="none"></path></g><g transform="translate(197.2289145281744 1453.161368300267) rotate(0 21.785385131835938 11.94873093809997)"><text x="21.785385131835938" y="16.74734128284092" font-family="Virgil, Segoe UI Emoji" font-size="19.11796950095996px" fill="#1e1e1e" text-anchor="middle" style="white-space: pre;" direction="ltr" dominant-baseline="alphabetic">save</text></g><g stroke-linecap="round" transform="translate(261.5292241772447 1443.2486387131642) rotate(0 35.038229818059506 21.024515787377226)"><path d="M10.51 0 C22.09 0.11, 36.72 -1.4, 59.56 0 M10.51 0 C23.79 0.55, 35.95 0.06, 59.56 0 M59.56 0 C68.03 -1.14, 68.13 4.47, 70.08 10.51 M59.56 0 C64.98 -1.59, 70.46 1.38, 70.08 10.51 M70.08 10.51 C71.4 18.22, 71.56 21.89, 70.08 31.54 M70.08 10.51 C69.61 15.3, 69.27 21.22, 70.08 31.54 M70.08 31.54 C71.32 37.36, 67 40.95, 59.56 42.05 M70.08 31.54 C69.06 40.81, 64.3 43.9, 59.56 42.05 M59.56 42.05 C44.84 43.19, 28.1 42.34, 10.51 42.05 M59.56 42.05 C47.92 43.1, 36.01 41.48, 10.51 42.05 M10.51 42.05 C3.77 40.4, -0.07 37.77, 0 31.54 M10.51 42.05 C4.72 41.69, -2.04 37.7, 0 31.54 M0 31.54 C1.63 22.96, 1.89 15.18, 0 10.51 M0 31.54 C-0.14 27.11, -0.64 21.32, 0 10.51 M0 10.51 C-1.6 3.46, 3.84 -0.93, 10.51 0 M0 10.51 C-0.52 2.47, 4.41 -2.05, 10.51 0" stroke="#1e1e1e" stroke-width="1" fill="none"></path></g><g transform="translate(268.39933265741354 1452.3244235624416) rotate(0 28.168121337890625 11.94873093809997)"><text x="28.168121337890625" y="16.74734128284092" font-family="Virgil, Segoe UI Emoji" font-size="19.11796950095996px" fill="#1e1e1e" text-anchor="middle" style="white-space: pre;" direction="ltr" dominant-baseline="alphabetic">cancel</text></g><g mask="url(#mask-ZGlsAjM4qPN4_bC4cRilw)" stroke-linecap="round"><g transform="translate(542.4764762870135 1555.9112190590797) rotate(0 -89.64366603708481 -103.51673205415972)"><path d="M0.08 0.36 C-13.16 -13.1, -48.55 -46.14, -78.52 -80.85 C-108.5 -115.55, -163.11 -186.95, -179.77 -207.87 M-1.33 -0.49 C-14.86 -13.81, -49.86 -45.3, -79.77 -79.71 C-109.68 -114.13, -164.45 -185.51, -180.79 -206.99" stroke="#1e1e1e" stroke-width="1" fill="none"></path></g><g transform="translate(542.4764762870135 1555.9112190590797) rotate(0 -89.64366603708481 -103.51673205415972)"><path d="M-159.7 -193.55 C-167.05 -199.57, -176.88 -204.48, -180.79 -206.99 M-159.7 -193.55 C-165.12 -196.68, -168.94 -200.18, -180.79 -206.99" stroke="#1e1e1e" stroke-width="1" fill="none"></path></g><g transform="translate(542.4764762870135 1555.9112190590797) rotate(0 -89.64366603708481 -103.51673205415972)"><path d="M-173.27 -183.14 C-175.49 -193.1, -180.2 -201.94, -180.79 -206.99 M-173.27 -183.14 C-175.63 -188.74, -176.32 -194.65, -180.79 -206.99" stroke="#1e1e1e" stroke-width="1" fill="none"></path></g></g><mask id="mask-ZGlsAjM4qPN4_bC4cRilw"><rect x="0" y="0" fill="#fff" width="821.7638083611831" height="1862.944683167399"></rect><rect x="443.3754901145038" y="1463.3221045239966" fill="#000" width="42.299957275390625" height="25" opacity="1"></rect></mask><g transform="translate(443.3754901145038 1463.3221045239966) rotate(0 8.749605024450489 -11.163682028006292)"><text x="21.149978637695312" y="17.52" font-family="Virgil, Segoe UI Emoji" font-size="20px" fill="#1e1e1e" text-anchor="middle" style="white-space: pre;" direction="ltr" dominant-baseline="alphabetic">Click</text></g><g stroke-linecap="round" transform="translate(97.1777202465895 1212.9991488068417) rotate(0 77.57228788690009 12.332015236469687)"><path d="M6.17 0 C48.8 -1.57, 93.13 -0.73, 148.98 0 M6.17 0 C57.24 -0.03, 107.81 0.15, 148.98 0 M148.98 0 C154.17 0.07, 156.05 2.05, 155.14 6.17 M148.98 0 C153.28 1.88, 156.63 3.47, 155.14 6.17 M155.14 6.17 C154.72 10.57, 154.23 15, 155.14 18.5 M155.14 6.17 C154.83 10.41, 155 15.04, 155.14 18.5 M155.14 18.5 C154.27 21.24, 152.78 26.45, 148.98 24.66 M155.14 18.5 C157.14 24.56, 152.26 26.7, 148.98 24.66 M148.98 24.66 C118.82 25.31, 88.67 23.56, 6.17 24.66 M148.98 24.66 C97.02 23.75, 43.2 23.91, 6.17 24.66 M6.17 24.66 C0.55 23.33, -1.44 23.54, 0 18.5 M6.17 24.66 C2.94 26.17, -0.71 23.38, 0 18.5 M0 18.5 C-0.67 14.43, -0.32 10.72, 0 6.17 M0 18.5 C0.12 13.35, 0.38 8.31, 0 6.17 M0 6.17 C-1.75 1.26, 3.08 -1, 6.17 0 M0 6.17 C-1.4 2.05, 2.86 0.97, 6.17 0" stroke="#1e1e1e" stroke-width="1" fill="none"></path></g><g stroke-linecap="round" transform="translate(97.55065612462647 1244.2849806948839) rotate(0 77.57228788690009 12.332015236469687)"><path d="M6.17 0 C56.68 2.28, 107.79 0.03, 148.98 0 M6.17 0 C48.04 0.01, 92.1 -0.26, 148.98 0 M148.98 0 C151.3 -0.56, 157 3.19, 155.14 6.17 M148.98 0 C154.39 2, 156.01 2.43, 155.14 6.17 M155.14 6.17 C153.93 8.26, 155.2 11.08, 155.14 18.5 M155.14 6.17 C154.57 10.89, 155.26 15.95, 155.14 18.5 M155.14 18.5 C156.62 24.47, 152.7 26.27, 148.98 24.66 M155.14 18.5 C155.85 23.96, 152.17 23.9, 148.98 24.66 M148.98 24.66 C110.14 23.47, 72.85 26.45, 6.17 24.66 M148.98 24.66 C117.39 24.38, 85.24 24.38, 6.17 24.66 M6.17 24.66 C2.26 24.5, 0.59 21.5, 0 18.5 M6.17 24.66 C0.31 26.01, 1.48 24.3, 0 18.5 M0 18.5 C0.81 14.22, -0.91 12.29, 0 6.17 M0 18.5 C0.03 13.97, -0.28 10.31, 0 6.17 M0 6.17 C-1.11 1.83, 2.69 1.99, 6.17 0 M0 6.17 C1.75 0.61, 0.12 -0.93, 6.17 0" stroke="#1e1e1e" stroke-width="1" fill="none"></path></g><g stroke-linecap="round" transform="translate(29.74952300138102 1302.7543498125622) rotate(0 150.76869648692525 65.63809901116747)"><path d="M32 0 C81.84 -0.64, 133.88 -1.18, 269.54 0 M32 0 C104.99 -0.21, 178.05 -0.6, 269.54 0 M269.54 0 C289.35 1.17, 302.82 12.14, 301.54 32 M269.54 0 C290.61 -1.84, 301.84 12, 301.54 32 M301.54 32 C301.84 46.55, 299.49 64.25, 301.54 99.28 M301.54 32 C300.56 48.81, 301.43 66.84, 301.54 99.28 M301.54 99.28 C303.06 119.35, 289.19 130.47, 269.54 131.28 M301.54 99.28 C300.65 122.01, 288.66 131.55, 269.54 131.28 M269.54 131.28 C217.4 130.3, 164.08 131.78, 32 131.28 M269.54 131.28 C221.2 132.07, 171.87 131.07, 32 131.28 M32 131.28 C10.8 133.24, -1.6 122.45, 0 99.28 M32 131.28 C11.97 129.23, 0.39 121.86, 0 99.28 M0 99.28 C1.42 77.48, 0.38 59.04, 0 32 M0 99.28 C0.18 77.51, -0.14 56.3, 0 32 M0 32 C-0.62 10.58, 10.14 -0.43, 32 0 M0 32 C-0.15 8.49, 10.01 -1.92, 32 0" stroke="#1e1e1e" stroke-width="1" fill="none"></path></g><g mask="url(#mask-FRIyY_dO1PvdXUJa9C5Qz)" stroke-linecap="round"><g transform="translate(1860.0188321268383 813.2557594108117) rotate(0 -159.9005481781012 -259.4236214833598)"><path d="M-0.89 -0.46 C-7.6 -69.94, 12.87 -330.87, -40.38 -417.16 C-93.63 -503.45, -273.74 -501.11, -320.39 -518.18 M0.84 -1.75 C-6.06 -71.05, 12.09 -329.47, -41.63 -415.88 C-95.35 -502.28, -275.02 -503, -321.47 -520.17" stroke="#1e1e1e" stroke-width="1" fill="none"></path></g><g transform="translate(1860.0188321268383 813.2557594108117) rotate(0 -159.9005481781012 -259.4236214833598)"><path d="M-296.77 -524.08 C-304.64 -524.09, -311.79 -523, -321.47 -520.17 M-296.77 -524.08 C-305.75 -522.54, -313.37 -521.96, -321.47 -520.17" stroke="#1e1e1e" stroke-width="1" fill="none"></path></g><g transform="translate(1860.0188321268383 813.2557594108117) rotate(0 -159.9005481781012 -259.4236214833598)"><path d="M-300.04 -507.29 C-306.94 -512.11, -313.14 -515.84, -321.47 -520.17 M-300.04 -507.29 C-307.78 -511.7, -314.24 -517.09, -321.47 -520.17" stroke="#1e1e1e" stroke-width="1" fill="none"></path></g></g><mask id="mask-FRIyY_dO1PvdXUJa9C5Qz"><rect x="0" y="0" fill="#fff" width="2279.8199284830407" height="1432.1030023775313"></rect><rect x="1799.0592326206984" y="384.08557116701354" fill="#000" width="42.299957275390625" height="25" opacity="1"></rect></mask><g transform="translate(1799.0592326206984 384.08557116701354) rotate(0 -99.35493029125229 168.85329949348312)"><text x="21.149978637695312" y="17.52" font-family="Virgil, Segoe UI Emoji" font-size="20px" fill="#1e1e1e" text-anchor="middle" style="white-space: pre;" direction="ltr" dominant-baseline="alphabetic">Click</text></g></svg>